<mxfile host="www.draw.io" modified="2019-10-16T15:58:07.268Z" agent="Mozilla/5.0 (Macintosh; Intel Mac OS X 10_14_4) AppleWebKit/537.36 (KHTML, like Gecko) Chrome/77.0.3865.90 Safari/537.36" etag="XdONfmc2B6dCqjHmIhN4" version="12.1.2" type="github" pages="3">
  <diagram id="Qx_wsLjrssdsX6xAez1p" name="uml">
    <mxGraphModel dx="1796" dy="574" grid="1" gridSize="10" guides="1" tooltips="1" connect="1" arrows="1" fold="1" page="1" pageScale="1" pageWidth="850" pageHeight="1100" background="#FFFFFF" math="0" shadow="0">
      <root>
        <mxCell id="FNH7iGGvDMnCWm2y9Ed8-0"/>
        <mxCell id="FNH7iGGvDMnCWm2y9Ed8-1" parent="FNH7iGGvDMnCWm2y9Ed8-0"/>
        <mxCell id="zybbUs_scfQLHuCZgqh8-0" value="&lt;p style=&quot;margin: 0px ; margin-top: 4px ; text-align: center&quot;&gt;&lt;i&gt;&amp;lt;&amp;lt;Interface&amp;gt;&amp;gt;&lt;/i&gt;&lt;br&gt;&lt;b&gt;User&lt;/b&gt;&lt;/p&gt;&lt;hr size=&quot;1&quot;&gt;&lt;p style=&quot;margin: 0px ; margin-left: 4px&quot;&gt;corporate_id : int&lt;/p&gt;&lt;p style=&quot;margin: 0px ; margin-left: 4px&quot;&gt;email : string&lt;/p&gt;&lt;p style=&quot;margin: 0px ; margin-left: 4px&quot;&gt;password : string&lt;/p&gt;&lt;p style=&quot;margin: 0px ; margin-left: 4px&quot;&gt;first_name : string&lt;/p&gt;&lt;p style=&quot;margin: 0px ; margin-left: 4px&quot;&gt;second_name : string&lt;/p&gt;&lt;p style=&quot;margin: 0px ; margin-left: 4px&quot;&gt;photo_url : text&lt;/p&gt;&lt;hr size=&quot;1&quot;&gt;&lt;p style=&quot;margin: 0px ; margin-left: 4px&quot;&gt;&lt;span style=&quot;color: rgb(0 , 0 , 0)&quot;&gt;getOrders() : List &amp;lt;Order&amp;gt;&lt;/span&gt;&lt;br&gt;&lt;/p&gt;" style="verticalAlign=top;align=left;overflow=fill;fontSize=12;fontFamily=Helvetica;html=1;fillColor=#f5f5f5;strokeColor=#666666;gradientColor=#b3b3b3;" parent="FNH7iGGvDMnCWm2y9Ed8-1" vertex="1">
          <mxGeometry x="-706" y="874.5" width="200" height="170" as="geometry"/>
        </mxCell>
        <mxCell id="FkADgXlTGeQibqpyxOKB-28" style="edgeStyle=orthogonalEdgeStyle;rounded=0;jumpStyle=gap;jumpSize=10;orthogonalLoop=1;jettySize=auto;html=1;exitX=0.5;exitY=1;exitDx=0;exitDy=0;startSize=6;endArrow=block;endFill=0;endSize=10;entryX=0;entryY=0.25;entryDx=0;entryDy=0;" parent="FNH7iGGvDMnCWm2y9Ed8-1" source="zybbUs_scfQLHuCZgqh8-1" target="zybbUs_scfQLHuCZgqh8-0" edge="1">
          <mxGeometry relative="1" as="geometry"/>
        </mxCell>
        <mxCell id="FkADgXlTGeQibqpyxOKB-38" style="edgeStyle=orthogonalEdgeStyle;rounded=0;jumpStyle=none;jumpSize=20;orthogonalLoop=1;jettySize=auto;html=1;exitX=1;exitY=0.5;exitDx=0;exitDy=0;startSize=6;endArrow=openThin;endFill=0;endSize=10;targetPerimeterSpacing=0;strokeWidth=1;entryX=0.25;entryY=0;entryDx=0;entryDy=0;" parent="FNH7iGGvDMnCWm2y9Ed8-1" source="zybbUs_scfQLHuCZgqh8-1" target="zybbUs_scfQLHuCZgqh8-17" edge="1">
          <mxGeometry relative="1" as="geometry"/>
        </mxCell>
        <mxCell id="FkADgXlTGeQibqpyxOKB-39" value="&lt;font style=&quot;font-size: 10px&quot;&gt;&amp;nbsp;create&amp;nbsp;&amp;nbsp;&lt;/font&gt;" style="text;html=1;resizable=0;points=[];align=center;verticalAlign=middle;labelBackgroundColor=#ffffff;" parent="FkADgXlTGeQibqpyxOKB-38" vertex="1" connectable="0">
          <mxGeometry x="-0.0277" relative="1" as="geometry">
            <mxPoint y="-2" as="offset"/>
          </mxGeometry>
        </mxCell>
        <mxCell id="FkADgXlTGeQibqpyxOKB-60" value="&lt;span style=&quot;font-size: 10px ; background-color: rgb(255 , 229 , 153)&quot;&gt;&amp;nbsp;1..1&amp;nbsp;&lt;/span&gt;" style="text;html=1;resizable=0;points=[];align=center;verticalAlign=middle;labelBackgroundColor=#ffffff;" parent="FkADgXlTGeQibqpyxOKB-38" vertex="1" connectable="0">
          <mxGeometry x="0.0066" y="44" relative="1" as="geometry">
            <mxPoint x="-59" y="43.5" as="offset"/>
          </mxGeometry>
        </mxCell>
        <mxCell id="FkADgXlTGeQibqpyxOKB-61" value="&lt;span style=&quot;font-size: 10px ; background-color: rgb(255 , 229 , 153)&quot;&gt;&amp;nbsp;0..N&amp;nbsp;&lt;/span&gt;" style="text;html=1;resizable=0;points=[];align=center;verticalAlign=middle;labelBackgroundColor=#ffffff;" parent="FkADgXlTGeQibqpyxOKB-38" vertex="1" connectable="0">
          <mxGeometry x="0.7975" y="-2" relative="1" as="geometry">
            <mxPoint x="2.5" y="-11" as="offset"/>
          </mxGeometry>
        </mxCell>
        <mxCell id="zybbUs_scfQLHuCZgqh8-1" value="&lt;p style=&quot;margin: 0px ; margin-top: 4px ; text-align: center&quot;&gt;&lt;b&gt;Manager&lt;/b&gt;&lt;/p&gt;&lt;hr size=&quot;1&quot;&gt;&lt;p style=&quot;margin: 0px ; margin-left: 4px&quot;&gt;&lt;br&gt;&lt;/p&gt;&lt;hr size=&quot;1&quot;&gt;&lt;p style=&quot;margin: 0px ; margin-left: 4px&quot;&gt;&lt;br&gt;&lt;/p&gt;" style="verticalAlign=top;align=left;overflow=fill;fontSize=12;fontFamily=Helvetica;html=1;gradientDirection=east;fillColor=#cce5ff;strokeColor=#36393d;gradientColor=#ffffff;" parent="FNH7iGGvDMnCWm2y9Ed8-1" vertex="1">
          <mxGeometry x="-804" y="224" width="148" height="64" as="geometry"/>
        </mxCell>
        <mxCell id="FkADgXlTGeQibqpyxOKB-29" style="edgeStyle=orthogonalEdgeStyle;rounded=0;jumpStyle=none;jumpSize=20;orthogonalLoop=1;jettySize=auto;html=1;exitX=0;exitY=0.5;exitDx=0;exitDy=0;startSize=6;endArrow=block;endFill=0;endSize=10;strokeWidth=1;targetPerimeterSpacing=0;entryX=0;entryY=0.5;entryDx=0;entryDy=0;" parent="FNH7iGGvDMnCWm2y9Ed8-1" source="zybbUs_scfQLHuCZgqh8-3" target="zybbUs_scfQLHuCZgqh8-0" edge="1">
          <mxGeometry relative="1" as="geometry">
            <Array as="points">
              <mxPoint x="-778" y="514"/>
              <mxPoint x="-778" y="960"/>
            </Array>
          </mxGeometry>
        </mxCell>
        <mxCell id="zybbUs_scfQLHuCZgqh8-3" value="&lt;p style=&quot;margin: 0px ; margin-top: 4px ; text-align: center&quot;&gt;&lt;b&gt;Courier&lt;/b&gt;&lt;/p&gt;&lt;hr size=&quot;1&quot;&gt;&lt;p style=&quot;margin: 0px ; margin-left: 4px&quot;&gt;&lt;br&gt;&lt;/p&gt;&lt;hr size=&quot;1&quot;&gt;&lt;p style=&quot;margin: 0px ; margin-left: 4px&quot;&gt;&lt;br&gt;&lt;/p&gt;" style="verticalAlign=top;align=left;overflow=fill;fontSize=12;fontFamily=Helvetica;html=1;strokeColor=#36393d;fillColor=#cce5ff;gradientColor=#ffffff;gradientDirection=east;" parent="FNH7iGGvDMnCWm2y9Ed8-1" vertex="1">
          <mxGeometry x="-706" y="510" width="160" height="68" as="geometry"/>
        </mxCell>
        <mxCell id="FkADgXlTGeQibqpyxOKB-57" style="edgeStyle=orthogonalEdgeStyle;rounded=0;jumpStyle=none;jumpSize=20;orthogonalLoop=1;jettySize=auto;html=1;startSize=10;endArrow=none;endFill=0;endSize=10;startArrow=diamondThin;startFill=1;" parent="FNH7iGGvDMnCWm2y9Ed8-1" source="zybbUs_scfQLHuCZgqh8-6" target="zybbUs_scfQLHuCZgqh8-8" edge="1">
          <mxGeometry relative="1" as="geometry">
            <Array as="points">
              <mxPoint x="-814" y="854"/>
              <mxPoint x="-814" y="146"/>
            </Array>
          </mxGeometry>
        </mxCell>
        <mxCell id="XAjGHLWM37kWeABm8Uru-8" value="&lt;font style=&quot;font-size: 10px&quot;&gt;&amp;nbsp;office&amp;nbsp;location&amp;nbsp;&lt;/font&gt;" style="text;html=1;resizable=0;points=[];align=center;verticalAlign=middle;labelBackgroundColor=#ffffff;" parent="FkADgXlTGeQibqpyxOKB-57" vertex="1" connectable="0">
          <mxGeometry x="0.2647" y="2" relative="1" as="geometry">
            <mxPoint x="389.5" y="429.6666666666667" as="offset"/>
          </mxGeometry>
        </mxCell>
        <mxCell id="zybbUs_scfQLHuCZgqh8-6" value="&lt;p style=&quot;margin: 0px ; margin-top: 4px ; text-align: center&quot;&gt;&lt;i&gt;&amp;lt;&amp;lt;Interface&amp;gt;&amp;gt;&lt;/i&gt;&lt;br&gt;&lt;b&gt;Company&lt;/b&gt;&lt;/p&gt;&lt;hr size=&quot;1&quot;&gt;&lt;p style=&quot;margin: 0px ; margin-left: 4px&quot;&gt;name : string&lt;br&gt;&lt;/p&gt;&lt;p style=&quot;margin: 0px ; margin-left: 4px&quot;&gt;logo : string&lt;/p&gt;&lt;hr size=&quot;1&quot;&gt;&lt;p style=&quot;margin: 0px ; margin-left: 4px&quot;&gt;&lt;br&gt;&lt;/p&gt;" style="verticalAlign=top;align=left;overflow=fill;fontSize=12;fontFamily=Helvetica;html=1;fillColor=#f5f5f5;strokeColor=#666666;gradientColor=#b3b3b3;" parent="FNH7iGGvDMnCWm2y9Ed8-1" vertex="1">
          <mxGeometry x="-283" y="818" width="128" height="92" as="geometry"/>
        </mxCell>
        <mxCell id="zybbUs_scfQLHuCZgqh8-8" value="&lt;p style=&quot;margin: 0px ; margin-top: 4px ; text-align: center&quot;&gt;&lt;b&gt;Address&lt;/b&gt;&lt;/p&gt;&lt;hr size=&quot;1&quot;&gt;&lt;p style=&quot;margin: 0px ; margin-left: 4px&quot;&gt;&lt;span&gt;country : string&lt;/span&gt;&lt;br&gt;&lt;/p&gt;&lt;p style=&quot;margin: 0px ; margin-left: 4px&quot;&gt;city : string&lt;/p&gt;&lt;p style=&quot;margin: 0px ; margin-left: 4px&quot;&gt;street : string&lt;/p&gt;&lt;p style=&quot;margin: 0px ; margin-left: 4px&quot;&gt;zip_code : int&lt;/p&gt;&lt;hr size=&quot;1&quot;&gt;&lt;p style=&quot;margin: 0px ; margin-left: 4px&quot;&gt;&lt;br&gt;&lt;/p&gt;" style="verticalAlign=top;align=left;overflow=fill;fontSize=12;fontFamily=Helvetica;html=1;fillColor=#cce5ff;strokeColor=#36393d;gradientColor=#ffffff;gradientDirection=east;" parent="FNH7iGGvDMnCWm2y9Ed8-1" vertex="1">
          <mxGeometry x="-536" y="83" width="130" height="113" as="geometry"/>
        </mxCell>
        <mxCell id="FkADgXlTGeQibqpyxOKB-31" value="&lt;font style=&quot;font-size: 10px&quot;&gt;contain&lt;/font&gt;" style="edgeStyle=orthogonalEdgeStyle;rounded=0;jumpStyle=none;jumpSize=20;orthogonalLoop=1;jettySize=auto;html=1;exitX=0.5;exitY=1;exitDx=0;exitDy=0;endArrow=openThin;endFill=0;endSize=10;" parent="FNH7iGGvDMnCWm2y9Ed8-1" source="zybbUs_scfQLHuCZgqh8-10" target="zybbUs_scfQLHuCZgqh8-11" edge="1">
          <mxGeometry x="0.0124" relative="1" as="geometry">
            <mxPoint as="offset"/>
          </mxGeometry>
        </mxCell>
        <mxCell id="FkADgXlTGeQibqpyxOKB-47" value="&lt;span style=&quot;font-size: 10px ; background-color: rgb(255 , 229 , 153)&quot;&gt;&amp;nbsp;0..N&amp;nbsp;&lt;/span&gt;" style="text;html=1;resizable=0;points=[];align=center;verticalAlign=middle;labelBackgroundColor=#ffffff;" parent="FkADgXlTGeQibqpyxOKB-31" vertex="1" connectable="0">
          <mxGeometry x="-0.0014" y="121" relative="1" as="geometry">
            <mxPoint x="-121" y="-56" as="offset"/>
          </mxGeometry>
        </mxCell>
        <mxCell id="FkADgXlTGeQibqpyxOKB-48" value="&lt;span style=&quot;font-size: 10px ; background-color: rgb(255 , 229 , 153)&quot;&gt;&amp;nbsp;0..N&amp;nbsp;&lt;/span&gt;" style="text;html=1;resizable=0;points=[];align=center;verticalAlign=middle;labelBackgroundColor=#ffffff;" parent="FkADgXlTGeQibqpyxOKB-31" vertex="1" connectable="0">
          <mxGeometry x="0.856" y="-1" relative="1" as="geometry">
            <mxPoint y="-18" as="offset"/>
          </mxGeometry>
        </mxCell>
        <mxCell id="FkADgXlTGeQibqpyxOKB-55" style="edgeStyle=orthogonalEdgeStyle;rounded=0;jumpStyle=none;jumpSize=20;orthogonalLoop=1;jettySize=auto;html=1;startSize=10;endArrow=none;endFill=0;endSize=10;startFill=1;startArrow=diamondThin;exitX=0;exitY=0.75;exitDx=0;exitDy=0;" parent="FNH7iGGvDMnCWm2y9Ed8-1" source="zybbUs_scfQLHuCZgqh8-10" target="zybbUs_scfQLHuCZgqh8-8" edge="1">
          <mxGeometry relative="1" as="geometry">
            <mxPoint x="-277" y="149.5" as="sourcePoint"/>
          </mxGeometry>
        </mxCell>
        <mxCell id="zybbUs_scfQLHuCZgqh8-10" value="&lt;p style=&quot;margin: 0px ; margin-top: 4px ; text-align: center&quot;&gt;&lt;b&gt;Stock&lt;/b&gt;&lt;/p&gt;&lt;hr size=&quot;1&quot;&gt;&lt;p style=&quot;margin: 0px ; margin-left: 4px&quot;&gt;stock_id : int&lt;/p&gt;&lt;p style=&quot;margin: 0px ; margin-left: 4px&quot;&gt;details : string&lt;/p&gt;&lt;p style=&quot;margin: 0px ; margin-left: 4px&quot;&gt;square : string&lt;/p&gt;&lt;p style=&quot;margin: 0px ; margin-left: 4px&quot;&gt;photo_url : string&lt;/p&gt;&lt;hr size=&quot;1&quot;&gt;&lt;p style=&quot;margin: 0px ; margin-left: 4px&quot;&gt;getCategories() : List &amp;lt;Category&amp;gt;&lt;/p&gt;&lt;p style=&quot;margin: 0px ; margin-left: 4px&quot;&gt;getRareItems() : List &amp;lt;Item&amp;gt;&lt;/p&gt;&lt;p style=&quot;margin: 0px ; margin-left: 4px&quot;&gt;getItems() : List &amp;lt;Item&amp;gt;&lt;/p&gt;&lt;p style=&quot;margin: 0px ; margin-left: 4px&quot;&gt;addItem( item : Item) : void&lt;/p&gt;" style="verticalAlign=top;align=left;overflow=fill;fontSize=12;fontFamily=Helvetica;html=1;strokeColor=#36393d;fillColor=#cce5ff;gradientColor=#ffffff;gradientDirection=east;" parent="FNH7iGGvDMnCWm2y9Ed8-1" vertex="1">
          <mxGeometry x="-318" y="70" width="198" height="167" as="geometry"/>
        </mxCell>
        <mxCell id="FkADgXlTGeQibqpyxOKB-6" style="edgeStyle=orthogonalEdgeStyle;rounded=0;orthogonalLoop=1;jettySize=auto;html=1;exitX=0.5;exitY=1;exitDx=0;exitDy=0;endArrow=openThin;endFill=0;endSize=10;" parent="FNH7iGGvDMnCWm2y9Ed8-1" source="zybbUs_scfQLHuCZgqh8-11" target="zybbUs_scfQLHuCZgqh8-18" edge="1">
          <mxGeometry relative="1" as="geometry"/>
        </mxCell>
        <mxCell id="FkADgXlTGeQibqpyxOKB-7" value="&lt;font style=&quot;font-size: 10px&quot;&gt;manufacured by&lt;/font&gt;" style="text;html=1;resizable=0;points=[];align=center;verticalAlign=middle;labelBackgroundColor=#ffffff;" parent="FkADgXlTGeQibqpyxOKB-6" vertex="1" connectable="0">
          <mxGeometry x="-0.1875" y="-1" relative="1" as="geometry">
            <mxPoint x="0.5" y="5" as="offset"/>
          </mxGeometry>
        </mxCell>
        <mxCell id="FkADgXlTGeQibqpyxOKB-49" value="&lt;span style=&quot;font-size: 10px&quot;&gt;&amp;nbsp;0..N&amp;nbsp;&lt;/span&gt;" style="text;html=1;resizable=0;points=[];align=center;verticalAlign=middle;labelBackgroundColor=#FFE599;" parent="FkADgXlTGeQibqpyxOKB-6" vertex="1" connectable="0">
          <mxGeometry x="-0.8204" y="-1" relative="1" as="geometry">
            <mxPoint y="4" as="offset"/>
          </mxGeometry>
        </mxCell>
        <mxCell id="FkADgXlTGeQibqpyxOKB-50" value="&lt;font style=&quot;font-size: 10px&quot;&gt;&amp;nbsp;1..1&amp;nbsp;&lt;/font&gt;" style="text;html=1;resizable=0;points=[];align=center;verticalAlign=middle;labelBackgroundColor=#FFE599;" parent="FkADgXlTGeQibqpyxOKB-6" vertex="1" connectable="0">
          <mxGeometry x="0.7852" y="1" relative="1" as="geometry">
            <mxPoint x="-0.5" y="-16.5" as="offset"/>
          </mxGeometry>
        </mxCell>
        <mxCell id="zybbUs_scfQLHuCZgqh8-11" value="&lt;p style=&quot;margin: 0px ; margin-top: 4px ; text-align: center&quot;&gt;&lt;b&gt;Item&lt;/b&gt;&lt;/p&gt;&lt;hr size=&quot;1&quot;&gt;&lt;p style=&quot;margin: 0px ; margin-left: 4px&quot;&gt;item_id : int&lt;/p&gt;&lt;p style=&quot;margin: 0px ; margin-left: 4px&quot;&gt;description : text&lt;/p&gt;&lt;p style=&quot;margin: 0px ; margin-left: 4px&quot;&gt;product_group : Category&lt;/p&gt;&lt;p style=&quot;margin: 0px ; margin-left: 4px&quot;&gt;photo_url : string&lt;/p&gt;&lt;p style=&quot;margin: 0px ; margin-left: 4px&quot;&gt;weight : float&lt;/p&gt;&lt;hr size=&quot;1&quot;&gt;&lt;p style=&quot;margin: 0px ; margin-left: 4px&quot;&gt;&lt;br&gt;&lt;/p&gt;" style="verticalAlign=top;align=left;overflow=fill;fontSize=12;fontFamily=Helvetica;html=1;strokeColor=#36393d;fillColor=#cce5ff;gradientColor=#ffffff;gradientDirection=east;" parent="FNH7iGGvDMnCWm2y9Ed8-1" vertex="1">
          <mxGeometry x="-313" y="375" width="188" height="123" as="geometry"/>
        </mxCell>
        <mxCell id="zybbUs_scfQLHuCZgqh8-12" value="&lt;p style=&quot;margin: 0px ; margin-top: 4px ; text-align: center&quot;&gt;&lt;i&gt;&amp;lt;&amp;lt;Enumeration&amp;gt;&amp;gt;&lt;/i&gt;&lt;br&gt;&lt;b&gt;Category&lt;/b&gt;&lt;/p&gt;&lt;hr size=&quot;1&quot;&gt;&lt;p style=&quot;margin: 0px ; margin-left: 4px&quot;&gt;Furniture&lt;/p&gt;&lt;p style=&quot;margin: 0px ; margin-left: 4px&quot;&gt;Garden&lt;/p&gt;&lt;p style=&quot;margin: 0px ; margin-left: 4px&quot;&gt;&lt;span&gt;Car&lt;/span&gt;&lt;/p&gt;&lt;p style=&quot;margin: 0px ; margin-left: 4px&quot;&gt;&lt;span&gt;Tools&lt;/span&gt;&lt;br&gt;&lt;/p&gt;&lt;p style=&quot;margin: 0px ; margin-left: 4px&quot;&gt;Home&lt;/p&gt;&lt;p style=&quot;margin: 0px ; margin-left: 4px&quot;&gt;...&lt;/p&gt;" style="verticalAlign=top;align=left;overflow=fill;fontSize=12;fontFamily=Helvetica;html=1;fillColor=#f5f5f5;strokeColor=#666666;gradientColor=#b3b3b3;" parent="FNH7iGGvDMnCWm2y9Ed8-1" vertex="1">
          <mxGeometry x="-224" y="942" width="118" height="133" as="geometry"/>
        </mxCell>
        <mxCell id="zybbUs_scfQLHuCZgqh8-14" value="&lt;p style=&quot;margin: 0px ; margin-top: 4px ; text-align: center&quot;&gt;&lt;i&gt;&amp;lt;&amp;lt;Enumeration&amp;gt;&amp;gt;&lt;/i&gt;&lt;br&gt;&lt;b&gt;OrderState&lt;/b&gt;&lt;/p&gt;&lt;hr size=&quot;1&quot;&gt;&lt;p style=&quot;margin: 0px ; margin-left: 4px&quot;&gt;Processing&lt;/p&gt;&lt;p style=&quot;margin: 0px ; margin-left: 4px&quot;&gt;OnTheWay&lt;/p&gt;&lt;p style=&quot;margin: 0px ; margin-left: 4px&quot;&gt;Delevering&lt;/p&gt;" style="verticalAlign=top;align=left;overflow=fill;fontSize=12;fontFamily=Helvetica;html=1;fillColor=#f5f5f5;strokeColor=#666666;gradientColor=#b3b3b3;" parent="FNH7iGGvDMnCWm2y9Ed8-1" vertex="1">
          <mxGeometry x="-377.5" y="941.5" width="128" height="95" as="geometry"/>
        </mxCell>
        <mxCell id="FkADgXlTGeQibqpyxOKB-34" value="" style="rounded=0;jumpStyle=none;jumpSize=20;orthogonalLoop=1;jettySize=auto;html=1;dashed=1;startSize=6;endArrow=none;endFill=0;endSize=10;targetPerimeterSpacing=0;strokeWidth=1;" parent="FNH7iGGvDMnCWm2y9Ed8-1" source="zybbUs_scfQLHuCZgqh8-16" edge="1">
          <mxGeometry relative="1" as="geometry">
            <mxPoint x="-218.5" y="324.5" as="targetPoint"/>
          </mxGeometry>
        </mxCell>
        <mxCell id="zybbUs_scfQLHuCZgqh8-16" value="&lt;p style=&quot;margin: 0px ; margin-top: 4px ; text-align: center&quot;&gt;&lt;b&gt;In Stock&lt;/b&gt;&lt;/p&gt;&lt;hr size=&quot;1&quot;&gt;&lt;p style=&quot;margin: 0px ; margin-left: 4px&quot;&gt;quantity : int&lt;/p&gt;&lt;hr size=&quot;1&quot;&gt;&lt;p style=&quot;margin: 0px ; margin-left: 4px&quot;&gt;increase( by : int ) : void&lt;/p&gt;&lt;p style=&quot;margin: 0px ; margin-left: 4px&quot;&gt;decrease( by : int ) : void&lt;/p&gt;" style="verticalAlign=top;align=left;overflow=fill;fontSize=12;fontFamily=Helvetica;html=1;strokeColor=#36393d;fillColor=#cce5ff;gradientColor=#ffffff;gradientDirection=east;" parent="FNH7iGGvDMnCWm2y9Ed8-1" vertex="1">
          <mxGeometry x="-181" y="262" width="148" height="95" as="geometry"/>
        </mxCell>
        <mxCell id="FkADgXlTGeQibqpyxOKB-37" value="&lt;span style=&quot;font-size: 10px&quot;&gt;&amp;nbsp;work in&amp;nbsp;&lt;/span&gt;" style="edgeStyle=orthogonalEdgeStyle;rounded=0;jumpStyle=none;jumpSize=20;orthogonalLoop=1;jettySize=auto;html=1;exitX=0.5;exitY=1;exitDx=0;exitDy=0;startSize=6;endArrow=diamondThin;endFill=1;endSize=10;targetPerimeterSpacing=0;strokeWidth=1;align=center;" parent="FNH7iGGvDMnCWm2y9Ed8-1" source="zybbUs_scfQLHuCZgqh8-3" target="zybbUs_scfQLHuCZgqh8-19" edge="1">
          <mxGeometry x="-0.0112" relative="1" as="geometry">
            <mxPoint as="offset"/>
          </mxGeometry>
        </mxCell>
        <mxCell id="FkADgXlTGeQibqpyxOKB-53" value="&lt;span style=&quot;font-size: 10px ; background-color: rgb(255 , 229 , 153)&quot;&gt;&amp;nbsp;0..N&amp;nbsp;&lt;/span&gt;" style="text;html=1;resizable=0;points=[];align=center;verticalAlign=middle;labelBackgroundColor=#ffffff;" parent="FkADgXlTGeQibqpyxOKB-37" vertex="1" connectable="0">
          <mxGeometry x="0.0033" y="-37" relative="1" as="geometry">
            <mxPoint x="-79" y="-103" as="offset"/>
          </mxGeometry>
        </mxCell>
        <mxCell id="FkADgXlTGeQibqpyxOKB-54" value="&lt;span style=&quot;font-size: 10px ; background-color: rgb(255 , 229 , 153)&quot;&gt;&amp;nbsp;1..1&amp;nbsp;&lt;/span&gt;" style="text;html=1;resizable=0;points=[];align=center;verticalAlign=middle;labelBackgroundColor=#ffffff;" parent="FkADgXlTGeQibqpyxOKB-37" vertex="1" connectable="0">
          <mxGeometry x="0.7115" y="1" relative="1" as="geometry">
            <mxPoint x="-1" y="14" as="offset"/>
          </mxGeometry>
        </mxCell>
        <mxCell id="FkADgXlTGeQibqpyxOKB-70" value="&lt;span style=&quot;font-size: 10px ; background-color: rgb(255 , 229 , 153)&quot;&gt;&amp;nbsp;0..N&amp;nbsp;&lt;/span&gt;" style="text;html=1;resizable=0;points=[];align=center;verticalAlign=middle;labelBackgroundColor=#ffffff;" parent="FkADgXlTGeQibqpyxOKB-37" vertex="1" connectable="0">
          <mxGeometry x="0.003" y="153" relative="1" as="geometry">
            <mxPoint x="-153.5" y="-139" as="offset"/>
          </mxGeometry>
        </mxCell>
        <mxCell id="FkADgXlTGeQibqpyxOKB-56" style="edgeStyle=orthogonalEdgeStyle;rounded=0;jumpStyle=none;jumpSize=20;orthogonalLoop=1;jettySize=auto;html=1;exitX=0.5;exitY=0;exitDx=0;exitDy=0;startSize=10;endArrow=none;endFill=0;endSize=10;startFill=1;startArrow=diamondThin;" parent="FNH7iGGvDMnCWm2y9Ed8-1" source="zybbUs_scfQLHuCZgqh8-17" target="zybbUs_scfQLHuCZgqh8-8" edge="1">
          <mxGeometry relative="1" as="geometry"/>
        </mxCell>
        <mxCell id="XAjGHLWM37kWeABm8Uru-3" value="&lt;span style=&quot;font-size: 10px ; background-color: rgb(248 , 249 , 250)&quot;&gt;recepient address&lt;/span&gt;" style="text;html=1;resizable=0;points=[];align=center;verticalAlign=middle;labelBackgroundColor=#ffffff;" parent="FkADgXlTGeQibqpyxOKB-56" vertex="1" connectable="0">
          <mxGeometry x="0.2586" y="2" relative="1" as="geometry">
            <mxPoint as="offset"/>
          </mxGeometry>
        </mxCell>
        <mxCell id="XAjGHLWM37kWeABm8Uru-4" value="&lt;span style=&quot;font-family: &amp;#34;helvetica&amp;#34; , &amp;#34;arial&amp;#34; , sans-serif ; font-size: 0px ; background-color: rgb(248 , 249 , 250)&quot;&gt;%3CmxGraphModel%3E%3Croot%3E%3CmxCell%20id%3D%220%22%2F%3E%3CmxCell%20id%3D%221%22%20parent%3D%220%22%2F%3E%3CmxCell%20id%3D%222%22%20value%3D%22%26lt%3Bspan%20style%3D%26quot%3Bfont-size%3A%2010px%20%3B%20background-color%3A%20rgb(255%20%2C%20229%20%2C%20153)%26quot%3B%26gt%3B%26amp%3Bnbsp%3B1..1%26amp%3Bnbsp%3B%26lt%3B%2Fspan%26gt%3B%22%20style%3D%22text%3Bhtml%3D1%3Bresizable%3D0%3Bpoints%3D%5B%5D%3Balign%3Dcenter%3BverticalAlign%3Dmiddle%3BlabelBackgroundColor%3D%23ffffff%3B%22%20vertex%3D%221%22%20connectable%3D%220%22%20parent%3D%221%22%3E%3CmxGeometry%20x%3D%22-628.4999999999999%22%20y%3D%22258.5%22%20as%3D%22geometry%22%3E%3CmxPoint%20x%3D%22-59%22%20y%3D%2243.5%22%20as%3D%22offset%22%2F%3E%3C%2FmxGeometry%3E%3C%2FmxCell%3E%3C%2Froot%3E%3C%2FmxGraphModel%3E&lt;/span&gt;" style="text;html=1;resizable=0;points=[];align=center;verticalAlign=middle;labelBackgroundColor=#ffffff;" parent="FkADgXlTGeQibqpyxOKB-56" vertex="1" connectable="0">
          <mxGeometry x="-0.4828" relative="1" as="geometry">
            <mxPoint as="offset"/>
          </mxGeometry>
        </mxCell>
        <mxCell id="XAjGHLWM37kWeABm8Uru-5" value="&lt;span style=&quot;font-family: &amp;#34;helvetica&amp;#34; , &amp;#34;arial&amp;#34; , sans-serif ; font-size: 0px ; background-color: rgb(248 , 249 , 250)&quot;&gt;%3CmxGraphModel%3E%3Croot%3E%3CmxCell%20id%3D%220%22%2F%3E%3CmxCell%20id%3D%221%22%20parent%3D%220%22%2F%3E%3CmxCell%20id%3D%222%22%20value%3D%22%26lt%3Bspan%20style%3D%26quot%3Bfont-size%3A%2010px%20%3B%20background-color%3A%20rgb(255%20%2C%20229%20%2C%20153)%26quot%3B%26gt%3B%26amp%3Bnbsp%3B1..1%26amp%3Bnbsp%3B%26lt%3B%2Fspan%26gt%3B%22%20style%3D%22text%3Bhtml%3D1%3Bresizable%3D0%3Bpoints%3D%5B%5D%3Balign%3Dcenter%3BverticalAlign%3Dmiddle%3BlabelBackgroundColor%3D%23ffffff%3B%22%20vertex%3D%221%22%20connectable%3D%220%22%20parent%3D%221%22%3E%3CmxGeometry%20x%3D%22-628.4999999999999%22%20y%3D%22258.5%22%20as%3D%22geometry%22%3E%3CmxPoint%20x%3D%22-59%22%20y%3D%2243.5%22%20as%3D%22offset%22%2F%3E%3C%2FmxGeometry%3E%3C%2FmxCell%3E%3C%2Froot%3E%3C%2FmxGraphModel%3qwe&lt;br&gt;&lt;br&gt;&lt;/span&gt;" style="text;html=1;resizable=0;points=[];align=center;verticalAlign=middle;labelBackgroundColor=#ffffff;" parent="FkADgXlTGeQibqpyxOKB-56" vertex="1" connectable="0">
          <mxGeometry x="-0.431" y="3" relative="1" as="geometry">
            <mxPoint as="offset"/>
          </mxGeometry>
        </mxCell>
        <mxCell id="FkADgXlTGeQibqpyxOKB-71" style="edgeStyle=orthogonalEdgeStyle;rounded=0;jumpStyle=none;jumpSize=20;orthogonalLoop=1;jettySize=auto;html=1;exitX=0.75;exitY=1;exitDx=0;exitDy=0;entryX=0;entryY=0.5;entryDx=0;entryDy=0;startArrow=none;startFill=0;startSize=10;sourcePerimeterSpacing=0;endArrow=openThin;endFill=0;endSize=10;targetPerimeterSpacing=0;strokeColor=#000000;strokeWidth=1;" parent="FNH7iGGvDMnCWm2y9Ed8-1" source="zybbUs_scfQLHuCZgqh8-17" target="zybbUs_scfQLHuCZgqh8-11" edge="1">
          <mxGeometry relative="1" as="geometry">
            <Array as="points">
              <mxPoint x="-413" y="490"/>
              <mxPoint x="-334" y="490"/>
              <mxPoint x="-334" y="437"/>
            </Array>
          </mxGeometry>
        </mxCell>
        <mxCell id="FkADgXlTGeQibqpyxOKB-72" value="&lt;span style=&quot;font-size: 10px ; background-color: rgb(255 , 229 , 153)&quot;&gt;&amp;nbsp;0..N&amp;nbsp;&lt;/span&gt;" style="text;html=1;resizable=0;points=[];align=center;verticalAlign=middle;labelBackgroundColor=#ffffff;" parent="FkADgXlTGeQibqpyxOKB-71" vertex="1" connectable="0">
          <mxGeometry x="-0.8238" y="1" relative="1" as="geometry">
            <mxPoint x="-1" y="1" as="offset"/>
          </mxGeometry>
        </mxCell>
        <mxCell id="FkADgXlTGeQibqpyxOKB-73" value="&lt;font style=&quot;font-size: 10px ; background-color: rgb(255 , 229 , 153)&quot;&gt;&amp;nbsp;1..N&amp;nbsp;&lt;/font&gt;" style="text;html=1;resizable=0;points=[];align=center;verticalAlign=middle;labelBackgroundColor=#ffffff;" parent="FkADgXlTGeQibqpyxOKB-71" vertex="1" connectable="0">
          <mxGeometry x="0.9067" y="-1" relative="1" as="geometry">
            <mxPoint x="-16" y="12" as="offset"/>
          </mxGeometry>
        </mxCell>
        <mxCell id="FkADgXlTGeQibqpyxOKB-79" value="&lt;font style=&quot;font-size: 10px&quot;&gt;contain&lt;/font&gt;" style="text;html=1;resizable=0;points=[];align=center;verticalAlign=middle;labelBackgroundColor=#ffffff;" parent="FkADgXlTGeQibqpyxOKB-71" vertex="1" connectable="0">
          <mxGeometry x="-0.2847" y="-1" relative="1" as="geometry">
            <mxPoint x="12" y="-1.5" as="offset"/>
          </mxGeometry>
        </mxCell>
        <mxCell id="zybbUs_scfQLHuCZgqh8-17" value="&lt;p style=&quot;margin: 0px ; margin-top: 4px ; text-align: center&quot;&gt;&lt;b&gt;Order&lt;/b&gt;&lt;/p&gt;&lt;hr size=&quot;1&quot;&gt;&lt;p style=&quot;margin: 0px ; margin-left: 4px&quot;&gt;order_number : int&lt;br&gt;&lt;/p&gt;&lt;p style=&quot;margin: 0px ; margin-left: 4px&quot;&gt;state : OrderState&lt;/p&gt;&lt;p style=&quot;margin: 0px ; margin-left: 4px&quot;&gt;recipient_name : string&lt;/p&gt;&lt;p style=&quot;margin: 0px ; margin-left: 4px&quot;&gt;delivery_date : int&lt;br&gt;&lt;/p&gt;&lt;hr size=&quot;1&quot;&gt;&lt;p style=&quot;margin: 0px ; margin-left: 4px&quot;&gt;changeSate( status : OrderState ) : void&lt;/p&gt;&lt;p style=&quot;margin: 0px ; margin-left: 4px&quot;&gt;setCourier( courier : Courier )&lt;br&gt;&lt;/p&gt;" style="verticalAlign=top;align=left;overflow=fill;fontSize=12;fontFamily=Helvetica;html=1;strokeColor=#36393d;fillColor=#cce5ff;gradientColor=#ffffff;gradientDirection=east;" parent="FNH7iGGvDMnCWm2y9Ed8-1" vertex="1">
          <mxGeometry x="-586" y="292" width="230" height="138" as="geometry"/>
        </mxCell>
        <mxCell id="FkADgXlTGeQibqpyxOKB-22" style="edgeStyle=orthogonalEdgeStyle;rounded=0;orthogonalLoop=1;jettySize=auto;html=1;exitX=0.5;exitY=1;exitDx=0;exitDy=0;startSize=6;endArrow=block;endFill=0;endSize=10;" parent="FNH7iGGvDMnCWm2y9Ed8-1" source="zybbUs_scfQLHuCZgqh8-18" target="zybbUs_scfQLHuCZgqh8-6" edge="1">
          <mxGeometry relative="1" as="geometry"/>
        </mxCell>
        <mxCell id="zybbUs_scfQLHuCZgqh8-18" value="&lt;p style=&quot;margin: 0px ; margin-top: 4px ; text-align: center&quot;&gt;&lt;b&gt;Manufacturer&lt;/b&gt;&lt;/p&gt;&lt;hr size=&quot;1&quot;&gt;&lt;p style=&quot;margin: 0px ; margin-left: 4px&quot;&gt;made_in : string&lt;/p&gt;&lt;hr size=&quot;1&quot;&gt;&lt;p style=&quot;margin: 0px ; margin-left: 4px&quot;&gt;getItems() : List &amp;lt;Item&amp;gt;&lt;/p&gt;" style="verticalAlign=top;align=left;overflow=fill;fontSize=12;fontFamily=Helvetica;html=1;strokeColor=#36393d;fillColor=#cce5ff;gradientColor=#ffffff;gradientDirection=east;" parent="FNH7iGGvDMnCWm2y9Ed8-1" vertex="1">
          <mxGeometry x="-303" y="675" width="168" height="83" as="geometry"/>
        </mxCell>
        <mxCell id="FkADgXlTGeQibqpyxOKB-23" style="orthogonalLoop=1;jettySize=auto;html=1;exitX=1;exitY=0.5;exitDx=0;exitDy=0;startSize=6;endArrow=block;endFill=0;endSize=10;jumpSize=10;jumpStyle=gap;rounded=0;elbow=vertical;edgeStyle=orthogonalEdgeStyle;entryX=0.25;entryY=0;entryDx=0;entryDy=0;" parent="FNH7iGGvDMnCWm2y9Ed8-1" source="zybbUs_scfQLHuCZgqh8-19" target="zybbUs_scfQLHuCZgqh8-6" edge="1">
          <mxGeometry relative="1" as="geometry"/>
        </mxCell>
        <mxCell id="zybbUs_scfQLHuCZgqh8-19" value="&lt;p style=&quot;margin: 0px ; margin-top: 4px ; text-align: center&quot;&gt;&lt;b&gt;Delivery&lt;/b&gt;&lt;/p&gt;&lt;hr size=&quot;1&quot;&gt;&lt;p style=&quot;margin: 0px ; margin-left: 4px&quot;&gt;&lt;br&gt;&lt;/p&gt;&lt;hr size=&quot;1&quot;&gt;&lt;p style=&quot;margin: 0px ; margin-left: 4px&quot;&gt;getCouriers() : List &amp;lt;Courier&amp;gt;&lt;/p&gt;" style="verticalAlign=top;align=left;overflow=fill;fontSize=12;fontFamily=Helvetica;html=1;strokeColor=#36393d;fillColor=#cce5ff;gradientColor=#ffffff;gradientDirection=east;" parent="FNH7iGGvDMnCWm2y9Ed8-1" vertex="1">
          <mxGeometry x="-560" y="734.5" width="178" height="83" as="geometry"/>
        </mxCell>
        <mxCell id="FkADgXlTGeQibqpyxOKB-66" style="edgeStyle=orthogonalEdgeStyle;rounded=0;jumpStyle=none;jumpSize=20;orthogonalLoop=1;jettySize=auto;html=1;startArrow=openThin;startFill=0;startSize=10;sourcePerimeterSpacing=0;endArrow=none;endFill=0;endSize=10;targetPerimeterSpacing=0;strokeColor=#000000;strokeWidth=1;entryX=0;entryY=0.5;entryDx=0;entryDy=0;" parent="FNH7iGGvDMnCWm2y9Ed8-1" source="zybbUs_scfQLHuCZgqh8-3" target="zybbUs_scfQLHuCZgqh8-17" edge="1">
          <mxGeometry relative="1" as="geometry">
            <mxPoint x="-630" y="619" as="sourcePoint"/>
            <mxPoint x="-500" y="534" as="targetPoint"/>
          </mxGeometry>
        </mxCell>
        <mxCell id="FkADgXlTGeQibqpyxOKB-67" value="&lt;span style=&quot;background-color: rgb(255 , 229 , 153)&quot;&gt;&lt;font style=&quot;font-size: 10px&quot;&gt;&amp;nbsp;0..1&amp;nbsp;&lt;/font&gt;&lt;/span&gt;" style="text;html=1;resizable=0;points=[];align=center;verticalAlign=middle;labelBackgroundColor=#ffffff;" parent="FkADgXlTGeQibqpyxOKB-66" vertex="1" connectable="0">
          <mxGeometry x="0.7447" y="1" relative="1" as="geometry">
            <mxPoint x="5" as="offset"/>
          </mxGeometry>
        </mxCell>
        <mxCell id="FkADgXlTGeQibqpyxOKB-68" value="&lt;span style=&quot;font-size: 10px ; background-color: rgb(255 , 229 , 153)&quot;&gt;&amp;nbsp;1..1&amp;nbsp;&lt;/span&gt;" style="text;html=1;resizable=0;points=[];align=center;verticalAlign=middle;labelBackgroundColor=#ffffff;" parent="FkADgXlTGeQibqpyxOKB-66" vertex="1" connectable="0">
          <mxGeometry x="0.0006" y="-10" relative="1" as="geometry">
            <mxPoint x="-12" y="66" as="offset"/>
          </mxGeometry>
        </mxCell>
        <mxCell id="FkADgXlTGeQibqpyxOKB-69" value="&lt;font style=&quot;font-size: 10px&quot;&gt;deliver by&lt;/font&gt;" style="text;html=1;resizable=0;points=[];align=center;verticalAlign=middle;labelBackgroundColor=#ffffff;" parent="FkADgXlTGeQibqpyxOKB-66" vertex="1" connectable="0">
          <mxGeometry x="0.0538" y="1" relative="1" as="geometry">
            <mxPoint as="offset"/>
          </mxGeometry>
        </mxCell>
        <mxCell id="FkADgXlTGeQibqpyxOKB-77" style="rounded=0;jumpStyle=none;jumpSize=20;orthogonalLoop=1;jettySize=auto;html=1;exitX=0.5;exitY=0;exitDx=0;exitDy=0;startArrow=none;startFill=0;startSize=10;sourcePerimeterSpacing=0;endArrow=none;endFill=0;endSize=10;targetPerimeterSpacing=0;strokeColor=#000000;strokeWidth=1;dashed=1;" parent="FNH7iGGvDMnCWm2y9Ed8-1" source="FkADgXlTGeQibqpyxOKB-76" edge="1">
          <mxGeometry relative="1" as="geometry">
            <mxPoint x="-380" y="500" as="targetPoint"/>
          </mxGeometry>
        </mxCell>
        <mxCell id="FkADgXlTGeQibqpyxOKB-76" value="&lt;p style=&quot;margin: 0px ; margin-top: 4px ; text-align: center&quot;&gt;&lt;b&gt;In Order&lt;/b&gt;&lt;/p&gt;&lt;hr size=&quot;1&quot;&gt;&lt;p style=&quot;margin: 0px ; margin-left: 4px&quot;&gt;quantity : int&lt;/p&gt;&lt;hr size=&quot;1&quot;&gt;&lt;p style=&quot;margin: 0px ; margin-left: 4px&quot;&gt;increase( by : int ) : void&lt;/p&gt;&lt;p style=&quot;margin: 0px ; margin-left: 4px&quot;&gt;decrease( by : int ) : void&lt;/p&gt;" style="verticalAlign=top;align=left;overflow=fill;fontSize=12;fontFamily=Helvetica;html=1;strokeColor=#36393d;fillColor=#cce5ff;gradientColor=#ffffff;gradientDirection=east;" parent="FNH7iGGvDMnCWm2y9Ed8-1" vertex="1">
          <mxGeometry x="-438.5" y="554.5" width="150" height="95" as="geometry"/>
        </mxCell>
        <mxCell id="XAjGHLWM37kWeABm8Uru-6" value="&lt;span style=&quot;font-size: 10px ; background-color: rgb(255 , 229 , 153)&quot;&gt;&amp;nbsp;1..1&amp;nbsp;&lt;/span&gt;" style="text;html=1;resizable=0;points=[];align=center;verticalAlign=middle;labelBackgroundColor=#ffffff;" parent="FNH7iGGvDMnCWm2y9Ed8-1" vertex="1" connectable="0">
          <mxGeometry x="-412.9999999999999" y="224" as="geometry">
            <mxPoint x="-59" y="43.5" as="offset"/>
          </mxGeometry>
        </mxCell>
        <mxCell id="XAjGHLWM37kWeABm8Uru-7" value="&lt;span style=&quot;font-size: 10px ; background-color: rgb(255 , 229 , 153)&quot;&gt;&amp;nbsp;1..1&amp;nbsp;&lt;/span&gt;" style="text;html=1;resizable=0;points=[];align=center;verticalAlign=middle;labelBackgroundColor=#ffffff;" parent="FNH7iGGvDMnCWm2y9Ed8-1" vertex="1" connectable="0">
          <mxGeometry x="-412.9999999999999" y="163" as="geometry">
            <mxPoint x="-59" y="43.5" as="offset"/>
          </mxGeometry>
        </mxCell>
        <mxCell id="XAjGHLWM37kWeABm8Uru-10" value="&lt;span style=&quot;font-size: 10px ; background-color: rgb(255 , 229 , 153)&quot;&gt;&amp;nbsp;1..1&amp;nbsp;&lt;/span&gt;" style="text;html=1;resizable=0;points=[];align=center;verticalAlign=middle;labelBackgroundColor=#ffffff;" parent="FNH7iGGvDMnCWm2y9Ed8-1" vertex="1" connectable="0">
          <mxGeometry x="-315.5" y="839" as="geometry">
            <mxPoint x="-1" y="14" as="offset"/>
          </mxGeometry>
        </mxCell>
        <mxCell id="XAjGHLWM37kWeABm8Uru-11" value="&lt;span style=&quot;font-size: 10px ; background-color: rgb(255 , 229 , 153)&quot;&gt;&amp;nbsp;1..1&amp;nbsp;&lt;/span&gt;" style="text;html=1;resizable=0;points=[];align=center;verticalAlign=middle;labelBackgroundColor=#ffffff;" parent="FNH7iGGvDMnCWm2y9Ed8-1" vertex="1" connectable="0">
          <mxGeometry x="-560" y="132" as="geometry">
            <mxPoint x="-1" y="14" as="offset"/>
          </mxGeometry>
        </mxCell>
        <mxCell id="XAjGHLWM37kWeABm8Uru-12" value="&lt;span style=&quot;font-size: 10px ; background-color: rgb(255 , 229 , 153)&quot;&gt;&amp;nbsp;1..1&amp;nbsp;&lt;/span&gt;" style="text;html=1;resizable=0;points=[];align=center;verticalAlign=middle;labelBackgroundColor=#ffffff;" parent="FNH7iGGvDMnCWm2y9Ed8-1" vertex="1" connectable="0">
          <mxGeometry x="-386" y="124" as="geometry">
            <mxPoint x="-1" y="14" as="offset"/>
          </mxGeometry>
        </mxCell>
        <mxCell id="XAjGHLWM37kWeABm8Uru-13" value="&lt;span style=&quot;font-size: 10px ; background-color: rgb(255 , 229 , 153)&quot;&gt;&amp;nbsp;1..1&amp;nbsp;&lt;/span&gt;" style="text;html=1;resizable=0;points=[];align=center;verticalAlign=middle;labelBackgroundColor=#ffffff;" parent="FNH7iGGvDMnCWm2y9Ed8-1" vertex="1" connectable="0">
          <mxGeometry x="-345" y="180" as="geometry">
            <mxPoint x="-1" y="14" as="offset"/>
          </mxGeometry>
        </mxCell>
        <mxCell id="XAjGHLWM37kWeABm8Uru-14" value="&lt;span style=&quot;font-size: 10px ; background-color: rgb(248 , 249 , 250)&quot;&gt;locates at&lt;/span&gt;" style="text;html=1;resizable=0;points=[];align=center;verticalAlign=middle;labelBackgroundColor=#ffffff;" parent="FNH7iGGvDMnCWm2y9Ed8-1" vertex="1" connectable="0">
          <mxGeometry x="-362" y="161.83333333333337" as="geometry">
            <mxPoint x="-1" y="8" as="offset"/>
          </mxGeometry>
        </mxCell>
        <mxCell id="DhU8eIh-4k-XDuC_-QJ--0" value="" style="shape=image;verticalLabelPosition=bottom;labelBackgroundColor=#ffffff;verticalAlign=top;aspect=fixed;imageAspect=0;image=data:image/png,iVBORw0KGgoAAAANSUhEUgAAAggAAAByCAYAAAA22intAAAgAElEQVR4XuxdB5hU1dl+v3NnZnuhK/ZeE6OmmUSjJkaxN7DSe6+CDZe1oLD0ZZfexIKgiVFjYjSK6X/EaKKJsUVUpMP2OnPP9z/nTrszc+/MndkFl3Dv8+T/ZefU97T3fOcrhP+hr6SERc9roDW0wpPdgCOlxHcBXCAZ3yDgGBC6g40OV4GwC8BHAP5OwNt1frzXvAdNOB6B0kugAxRM6X4uAi4CLgIuAi4ChyECdKj3ueQN9vQMIM8vUMytOB0CP2bGFQDOAuBz2j8Cahh4AwK/kTr+Ai925TShbvvVaC4lkk7LcdO5CLgIuAi4CLgI/C8gcEgShN4bWfteDjple9GDBU5iiYtAuByM0wF42jowBNQT4feS8Dox3pGEL6UXe47ag7o+fUhva/lufhcBFwEXARcBF4GOjsAhQxCWbWFv6350I8YxknAiJM4n4EcMfAtA1gEDmo3niLfB+CsB/yTCpxph284/Y29pqStZOGC4uwW7CLgIuAi4CHytCHRogjDjRc7t5kXPAHAyAaeDcCYB5zLjm+k8H7QXwqFniPcA/IMY/5aEDzyET3b7sKP0Egq0Vz1uOS4CLgIuAi4CLgJfNwIdiiAwMy1/DYWtjFMYOJt1nCXUEwLjNCKcyIzsrxuwcP0ENDPjAwY+FAIfEuEf5MV7u4FtpZdQc0dpp9sOFwEXARcBFwEXgUwQ6DAEofxV/gZ0XC9hWBwcBeBYAD3A8EY6Fm4tmwwMyKYL5jSqgPh0ZhuF+CLsfrOvVxGCL0DYCpafEsRb0LBlrwcfu2Qhk2np5nERcBFwEXAR+LoR6DAEYeGv+R4iTAVQpCQJBwMYQrAaDtk+tlOdLQD2hMwotzLT6wD+WJWNf7vPEO2EsFuMi4CLgIuAi8ABR+CgHMROerHw13oZM01xkrYtacKCBENIcKA9HRACYKoGuJaI9jLwogzgt119+Fe/y6mhLf1w87oIuAi4CLgIuAgcSAQ6DkF4WS9j0BTLMzv8xzRaG3mNSIJeyjQZ1mvVBwKYoXQTuAWg3QBe1oDns7x4d/hlVHMgB9kt20XARcBFwEXARSBdBNI4clMVzaSe6IM39PS9EM59SS8jwpSo2D9aXzIVAaO2JE2zFxJEf7GqM77c+HLaWmewfKOUvSB+mTSxqcmPPzVfhZpSJdug9DFMNULu7y4CLgIuAi4CLgJOEciYICi3xrgYvuwG5ADNnXK17BMCUp5MEJ/XNOD10j7U6rQRKt3cl7mMpEz6xGB3obf8e+QtIfhrBsKASPOt8tqWp+oNKTNmUGcTiF6WkL/0CO1vkrCnJguN2IxW1+dCOrPJTesi4CLgIuAi0FYE0iIISnlw9gvI9/nQRW/FsRDyXBLiYpbyQiJ0CR7E9Jof1Oeeq6kqncbNfYnLwHJKUnFAqMCwMUGMYUI6p3E64oBkdabLPNKql5Sy4xvE9BsC/sGEL1qzsO/EKtS73hzTmVluWhcBFwEXAReBTBBwRBDKXuE8bm3pCXhOIUnnQKOLiPEjgPPjKyXQ31v89LN7b6R96TSoTD0xMA64kqJ9m/gvREIycASAzmAuBKCl04cDmLYeoC2S+fcaxD9B+KRFw/Z36rF/k+v6+QDC7hbtIuAi4CJw+CJgSxBUEKTc2sbumpb7DWZ5HoO/S6CfgFGQDC4i+gigH065hvamA2uZkiCkeGJIp7yEtOaeWigmSBLf83qxX/r1bzHoFIJyzMSnA3QCYEhHMnPSlKLetPtEaADTu8z6FnjofaHLfwif99NJlyuX0K7eQtp4uhlcBFwEXARcBCwRSCAIa97g7F31OI2kvBCE8wj4AYNPAtsFQYo9AYnoKwo0nnfXjQVKU9/xV/YClzHLkBVDKvvD1KduMAXFWDKa/6VqCKcBQRLEyXddS5+FG7zsRc6tFjiTJM6ElMcScBaT4eL5GCU5USYJidKTYJ3qi/W1FNWDiNQZSZN5X4moiZnfEkTvM+MjXep/FML70bTrqM4x8G5CFwEXARcBFwEXAQsEIofcopc5q7E1oAIgXQui76p4B0SkRO0xB6FxsCY7n4n2BdB01n3X5e9KB/HZLyg/CDzFsISwyBhTb9yZamlWGCokxvmhqdyY8ohaPVKcPPl6+tKqzUqakl2No4XAKYDeE+BvAnQRYLiB7hTOY8bFqt547Kz6GlGlsLHBtOsrEdVKye8S0b+J+DWvrv1u4g3KB4P7uQi4CLgIuAi4CKSPgHEMlWzkI7Kz5DhieQVApwBI0C1Io+j6bNJOnnAdpU0QpOR210FwpBdI1Ehecdq0K2lb6n4yzXkRXXSJ41lDFwTkN8DcC0RnAegGsEiUIKQutT1ShPraSkSfg/F0QBPL77+GvmqPst0yXARcBFwEXAQOLwTo0Ze4EwL6EgC9wFCKeSm+WOF5NHHo7yRaNK84fupVtDNVSebfH3s+KEGwzmN3zJtF93bqFA4oAqFO6NqZ025yQhBiW6gUOAN+9ADQiQP6NwXEtYD8LgPdwewJpnakCxoquO19DUoqxBdgMemeG+i5dMbBTesi4CLgIuAi4CJgnFwzfx54EeCfpQyfHDnjrGT3UXk4gaSULUffd1PejnQgnvlzvQyI84OQrE6j9XFy+HTfISINpGrp1c5u222bqWQjvEVAvl9DLrJwnu7XbyXCD1ny0QAMyYLt56ivIfLg4B2CiFqYaPy912vL0hkHN62LgIuAi4CLgItAmCAEGNyu5nyebM8xzsT10UFQBIHjCcJBGiMC7ZNe7Zy2EYTYxiqfETNmQOt5DWjPVpxDQh8JwkVgPjElWWiHfhvumkhMvPd6sYhc64Z2QNQtwkXARcBF4PBCgB5+zi/TlIGnRCg723P8lKvo85QJTQkeftZfBvp6/CAIot0y0Hre/X1yD+h7vfI+mXUuTpcyMBzAjwk4mpnywOwDpZAwpANmKC0BM/w+T9mMa6gxg+xuFhcBFwEXAReBwxgBevi5gM4hxbowDkraHXkJt/NQaOXOMJxW85w8/Qb6NB1cwwQhab2WLhQTbAodV2t6GNnp82jnT7uOtjvO3MaEhqvqs1pP92me3gx5gWQ+joi6hxREfWF3zTEmIw7UKczNYuJ5TWie+eiNhWk5rWpj19zsLgIuAi4CLgL/AwjQQ8/6lfdA0wt4VPEv0/7pwnta6Y3KYZLzTxEEBltHc3ReTCSljZVgjLAk7BeBmbbrPs93Sg8iQYjv0kMbm05gj+8asH4+gY5nlicApBw05aSS8Nj3Fct1r7+09Lq8g0Z8MhgqN4uLgIuAi4CLQAdEgB7c5E+QIMS308rtgZ2vApWXic+YcXPWf9Lp74ObggTBLMUI/7edEMOoy6aSJIemRQ7aJgOt3yu9rWMcpMqyxN+sXwXo54DpOABnBh00IY8t3D/b9ZWAJ/SAPr30tpyt6YyFm9ZFwEXARcBFwEWASjf5dcN2P05BXkET4xApDayEzmdOvzXrgzSyYMYmfxmYp2Rap21dVmL5xL5+4dW837/vJkrL8iKd/mWWlunRJ1Hc6tO/T6CzGPqpQYsTgzTEfpZMiZ8Tgu+ZfnP2x5nV7+ZyEXARcBFwEThcEaAZG/06s0xugmegEy8zsPeH4GHfmdNvpTQJQksZy3glxWRyCnObUvhmSDG6RLTVq3l/0PEIQmzDSzbysYTAImZ5XfCX5HISIrykeTB1+o3pkbXDdTG4/XYRcBFwEXARiCJAJc+oJwYnBCGUKZm8P5REsu/Mh9MkCCXPtJQxklgxGD4O2jB0SfIT0X/9mv9HM9P03dCG1mSUdebPuUtza2sFCLckLSDUVyL8VgJTHuqT9V5GFbqZXARcBFwEXAQOWwTogQ2tKXUQ0kWHkRlBkF9TuGci+jTQ6r9wZt/0nDuli0tb04cJAiMFQYhURG8IgUmlfXzvtrVuN7+LgIuAi4CLwOGFAE1XBIGD8QPCX1gPwBxwKCks8ZJuSp8gTH+mpQwMI1iT4y89TcSEYsP9JOCTgD9w0aFAEBpbWivgkCAQ6A+CMKH0Vt/fHWPqJnQRcBFwEXARcBFQQvvpT1tJENhkHZBM90BhGOM1wQCViM58OE0lxelPNxtPDFF+kDRkZGjwYtkEpf0GEcn/saZlXVTaJ734EQd7BikJQkNLawU5JAgg+jN7MP6Rm31bDnZb3fpcBFwEXARcBA5tBOi+p1qSOkqyowfJ1AFIpE8Q7nu6OShBCOHp1LQyHv74/MkEEtE66EOPx3dxRycI9/ycu4im5goQGToIqfpKRH8VROMeutX31qE9Td3Wuwi4CLgIuAgcbATovqfUE0OskmJMLKB0RP6h1gstfYJwjyIIElEzxwzqjQHPwfNDtJ/0H7/Hf0lZn/y0IlAe7MFSBAFNzRWEIEGIfLaOEMT/EWPcI3f4/naw2+rW5yLgIuAi4CJwaCNA9z6ZKEFoa5e0TAjCk81lSGbF0NZGJclPhA/8LYFLywZ2fILAVgTBtm/8FgSPffS23P87gPC5RbsIuAi4CLgI/A8iQPcoghBRUkzH2b+V74Hg3zwekbYOwj1PNpcxK0+KyR4vkng9srxSJxuxmPb/W/cHfnJIEITGZpOSYiq7T3qLJI19tJ/PJQj/g4vX7ZKLgIuAi8CBRIDufiJOguDUjMAUvSESWCjUUq83fYIwbb2SIERdLdt22qg3VHmqtloqMpj+GM3/bxnQDwmCoNc3V1C8HwQ7fU7CW0JqLkE4kCvILdtFwEXAReB/FAGaul5JEKQwn/fhvqY6f+0wyfKlQxCYxr4MX87eptkgGpdpnemMT2Jf6X2PlvXTmbfTrnTKOdhp71nHXQJkliCkaAHhLWZt7BxXgnCwh8qtz0XARcBF4JBHgKY+3mzrKMnavb+pzzY3V0HizNn9Et37MjPN2ARvTUN1rteXdzxL+T1i/hZD5BHkdwCcbqubaP+iYTSojTEc3vd6sg8NggBlxeDQUZJBEHjsnH6uDsIhv1LdDrgIuAi4CBxkBOiudYogWLtatvJOHDWtszcTEKQZBGHAms+yO+mdczVfdk+SfCEL/j4YR4DgAXMRAz0J6A5ThEI7j8jBvzswTUgAMHUeAt7zeuVlM2/P7/AShFY0JfGDENdXgjJvdAnCQV5UbnUuAi4CLgL/CwjQFEUQLMwcIzfyTMwNidYRcDIzFzBYI1AWgGIiKmRmnxVwMaaVKkEm9WYwIgbxIPwz4JU/W3goEATZ5FyCALxFwiUIGUwLN4uLgIuAi8BhjwBNWtskAY5Vh3cSGCmZRyOgFYA3ok1odYnPxAOTVZ12ZMLWN4BpzMPlCfxDb5WXLxza8SUILYogxHtStMGXXIJw2C9wFwAXga8LgZIS9jQdixw9B1kUaC6QQusBXc/xAPALBADakZ2VVePbiZY396FxcykFvq62uvVaI0ATFUHgOIJwuKFFeFf65RWHAkFoksmeGGIHThEEnTF24aAOrIPATCXPo6iu3n+c3bSTzdy6YKizkNWjKjjfV9hYAI/IopZAHmlZaj8yPiGZdb9v27zBqCKidpNRjX2CC3NaWo4M+ES2VR803VtfNoA+Nf+m9HHueQIntbb682ApUwumJs371dzbaW97L8mJ8zjH07mlp66J/HDZMgDyAdk6ZAFponYXvO+v70cN8XWXlLCv4aTWUyWR1t7tclKer67xi8dGFVdZpe29kbWjWhq7C3jV06XlF5wH3Dh/SNanQPvNA5SwKDlrT25NQzePX0DztDZ49HzSRCt5NNYKdMgjsjtl/232dVQXbtjYRZyV06nl+ACs544TPNorDRH7fbpv16P9aV8mZQ5bxt4uXhQ3aq2XCsiRxLgwPs5PuFwLB/06EW/UNO+SmkbPP5cPR217jc24dY3HeoTnYta5GYKbhI5mCK1JEjfraGkOtMpmn+YLSMEy4ANr9WC/D+wJMLcGGjlH5Eip5Umfv46lxpK1Qql7IXXfHrlnWzf9zHPhL70YevAFPP35NGwZ5/o8jcUeIXxeIq05G+BWlh49KEf36+CCnJbax+6wnvPpjtWwjVyU3+I/Plk+1jlQ+JnvA5qwplEmBFI2mpVi/zRrBaY0PbC44sZrFUaqS1JvQh4njpTj0sS0OwQR4V0OHCIEQW+oQLwnRTvdDKK3uIMTBLWp5GY19wHzE8ZoWM0loq0LBuaekGohTFzVMJiJlipXHMG0ifODQDuFRwzI/zTrd6XtdGOZsLb5KjDPAvNZlnWSeHP+wJyL4wnClHWtG3WpXwewkrYFPzU/wxgQqbgmTzBj+oKBOVtT9T+d3yeta5wmJUoA5MTgbtRvtKOJBK2Z3z97dHy5o1Y3HuMD/qmeDWP7a9r2Q+ss5iAwj21cP6NDFR0zIoodwdBPTHRH8dbsDaWlpPaumG/kk9Wdslu9Uxh0b8J8MtcJ7AaJe/S67CfLx1FLOtjZpR27pulCDfx723msSKqXvzWvb/4/wmVMWNN0PIGfZOAHMeVa7odxx2qy/TC2r6Yt3h5fAnYC4qH5A7MrneHBNGzZjpxcT6cjSKPrwHIsg48Hhzak8FyKX4umdhs9iu+rmnsQv9YlL2YKvP/e51uqNpdekrF0YcKq5l4k5Msxu0F740vUQMwfsBCvCh2vepD9YXUAe5YPJ38qLCesahgGwgMAjgpr28evGyb+PXl8Exfc6X0HbbjcTFjDxUTNr7Lkb8esXfOYMJoBeW/h53nlNF4RhEwlCPH7r53fHqfpUiEZ/t1JeU7SRHfld6DLXoeCBKHRiiDY9/UtgDq0BEERhBxfQ29IejJm+M1ziWjrQgcEYfzqxt8x+BJK7m1LbZbbBYuB2wqyfrepD+lOp51dOkUQWOqzAJxllYYg3lwwKJYgqHTqZkMBfhOEGDavlHEj4dJYbaA8YEdh3hPt0VZV79jVdd0Eex4B8dDwJhFWADbqDRKEL6HhroX9c5+J79P4FdwDWuN/CFRsDutmjY+J8IQJkNXlwzyHU/n/0unWhUNyNlptlMOW7S/K8WZNAhsbbvAzNj/TwRjBl7ZCUIlXZD83x0JSku68mLSu+Wo9oL8YrddcQqgNGp+zsH++IlfGN3VVQ89WQjkDN8bXFzMPkjUmBjubvjrDd6cgzRFBUAroxYGuJ0CIW5hoFMDdInDHzV9rPGI7ZNlX4yCkX+tSLgu0yr/22Jm/14oUphqn8SuaL4Om/zZVOtvfneCrMpvSMeE9EM2slw2/Wj24W0RiZFXHjBc5t2pvk4pF1B/gPGPKKgxjCbVOoDWtlD29cmBmQQXHLtpXqOXnzmXIIUn62kok1rY0t9y9ZFRxFY1bHSUIdv52nACbKDKK7tJO7vnhOtKR+yZTM0hVTlxf3yHJHZ4gjF7HXYS/oYJCwZpS2WeoJwZQRycIW7xZ4vSbSdBT0Q0m7l6qCMKg1BKE8asb32HwORS6wSSdA8w7BHkGLxic9ZtMxILmNREhCIyzLOskenPRoNwYCYKRn5kmrGpco27EDI48hcSvQyLxuAa+f96g3C+drMVUaSasahogIRcQoCyJgmeoKZP6G4P+UidyLl07kJrjy5u4kjtLalDi+eJU68w8plZr3E49yfY8YwQk0y3lQ3N/btXPqau4oBmNEwA8aO6XXXkM+oghH0VW3s/L76TaVNgl+33cmvq+kPR4sn1JCM835w/Mei9czuSnuGugqamUwaPixyHuzEnaNLu9Ox18mbCTCA8tHJiXVIKgntSotfkGSDmWCOfHt9PpORKUyEcJZJK5pAO0jD2edS3N3nec3Mpj1ueapoullG84xdfqLHM2l+KHiOoB3NscqF61fHjPxmQDOHJV04lZxPMkoxcQVeSPG7/9IJrV7G9etnx455p05mrJRvZV1TWMAVMZCMIyL0MS4RWCGLNgcM5/jT4rgqDeQyMAxI1S/AaSzsU8ktfiRpCwMZnZl6n1yYiHVSdjyk1Vbygxg98RjEOHIISeGFLhaygpdnCCUPIGe6o+bbqZwU/bXhwJWxcNzkv5xDBuVdNHYHmKeV7EHwwx85doJyRGlw/N+UVbSIIiCHpAn0UmCUJ0HqpLEN5cNDg/kSAAGPE4d/e1NnyoDtv4AzQq9SMm8PXbC3J/1VYpwphVDT0FUALGsAhOsa8a6s8NTGJ++aCc6VZrrGQj5++vbfyCgE5ODjEngkU7PyYx6zn4j72A1nfRkOzfWLVtyuOc1xpoGAdJMxN+D20mCeuG8QGEKGv2Z/98+XBKa+M11zFmVd1YwWJR8n3J841FQ7LeD6cxDtuW5vEMaRAaJ/uwoz3Yrq9xjTPjy8BOwXho4RB7gjCysrqTx+cdTYS7wChM2lebgXe691uU/VeCqNxRmP1UOutg3KrGHwH8B4u5FKkiDoeYqi274RRfRjWAfosG576USu9pwqrGCyQwn5m/Q+oQt2JMRB8SY3qxlvNiqQV5tz74mcavbrmGObAKoK6WfSVlqUBbJGNily9z/hKW1NCYVdYShMSKgqLH6OJKxbMSwxEn27it2VCwtlhJS3LKYHvziHuRjmG5jL9nZ+X2mtOPdlu34+v+K1NJCWjXEfVdvR4qB1Ef88ZsNYFDyG1hEuO6fpFjxGLIRDx3oHuuNJ33Hd10E5HckFhXsGfkkCCMWdmwlQAbZUe7uYQdBJ62aEjeE5mShLErm68CrJ4Y2Ji7BLxZPtSaIKj+jVvZMJOBe8xjGjkooqD8XNd4dGUbA4qNXt5wtRC8DqDOSdbjVojc75YPoj1W468U6zinYQcRGQQh+gX7G/6UDkHws16VydaqXS4GPiAWw8uH5vzBqm3Dlm3PzfIUjwbzbLsdKOGAChb0bwBzkZ37bKaShDGrGqYTc+SgN8tljDoZktnzzYphWf8Kt33AGs4ukI19mbE8gpvtomtffM0YB3dV3gnQQ4ttCIJqa76/4SESNA5QqrXWSCZcKpmVLo3SF1H/Cy1EQ4oulBJjdJ6knksM3kNCPNz585xKpzpEY1c0fp+J/5IaX+M5z2L+xiNlnvHB/05GgonprYA/5/Ilo8hSsdbc63Ermq9k0pUe1TF26wbAHwOMCd235b7jZE9X/Qd4EQPnG8QjtCbjVII+lBAzfLX7fjl/0jFNEaxGr2iw1kFwKieyncyhH9ItJ5XcPFV98bPAioUllvF3PZt7Le1X0KEIQkkJi309W08loQ+S4Hww54DoR2A+OaYL9pjtJqI/Spa7iQSDuLabnvfgjOGUVNzlFOL2SKcIwt6j6m8EKOGtO1y+ELS1fEhqCcLoFQ1bwRwlCA7nEhF9rpSzFg/NXp0JSVAEgTkwixlnWemLEonNi4fmXmKHl3o394qs7WDONfKrORtZNyGSpDZXoou6fDnrL6WlpQnKeU7GYsKyhiMDAjOY2SQ9CFUUVYz0E1C6eGjuTDssjHl5dMMeBqIkI+FUiKx/JZ5UNCn0v9BRGd6lovw/mE5dQogDBGoEqXkqm6D+m7mRQY2C6B/QxYry4dkxViHmAzdPNoyCxNyEG1iMYmQcYkEi9x8QZsvWvE2Vow3xcFrf2FWNc6QuJ9utTSFEK4R2bvmgLEVGjE9huf/4pu9Kne8VTLlMnAsgF+BcMOWBOJeZskKjpJRT1MFKyr8MGJqt77hwX413fOPNzcBfARwdD2OihW9+6oedkujRyiF5y+I7HhzzpkcAnsRhEbidKCP0dxLUysyfEuO3EPQRpJQUuRcL1SIBwhFS4nICvsWCfUbz7OdS+DCuBosZi4flLHKyXsesavg2S34rcT6YeslQc86kjxTuhEoTVtxV/80KRFKf0jkNThsLNwGhbEYNKpHmvXnx4KznnEyocStr+kr2LGfmWKuoyCQgKcFPobXxrsrR3XcmK3PUyuaTIQMziegaIFReDL5qMvEOJTGU/taVSu/AXB6NsiMITnoS6nzSAIxOy0knnc0VIJ0iYtPS2zJbXtnRCIK6qcmshltBtDyyKDPvpBqmFhXvomJoXuS20obi2iWrMkvrUVV/oyTaGHswmhcvba0cnoIgMNOoFY2fASaC4KSFxgonCcIXBJq3eFjOYiebjrloRRCkDMxiOyVFwuaKofm2BEGVNXpFwzBmTtiYw/WovYEIm6mp5brycV0yeisfvbT2AibxK1DwacDqI0IdWvJOqBiT3NRt9Ir6vczoYlsOqJxJbibWGAiAhMbQATYJTo3DIrQly/DflXV8lqYjEPAT2C80rTUQYD/Afk16W6HptZ2LcnaX9iHlayXhU2+te6vqRzBoYTr7UvQew58yxKys+v1PmG9STqbSmBUNK6XkwXb1KtITkPI7y0YURAiCKleZueV4Wo7RAwEfe31eoQd8AHklwUdS+hjQWMCwKWWpTnSZy6AbCegdoVsJV1ilPc9vKpF8sO3RMdChQ6jxUHPKNAakcbMmtI+sLGZGLa8bRRBKETc/lWIqwRibNaThZTDtI6F/VD4of6/Vuhq0ak9Bvsw9VTKOkuATCDTesIRIoMih+3SIPBPoC9K0EYsHZ/861diMWl7/LQDvGP21sc8jwiKw3EzQTCTBrL8ctehl0pU8hJg86u3vREg5AILOCiv7x99LjH8T/bJiaN71qdoamg9en9Y0kaV8lGGtL0BEDWDMbvDmzrbSE1LlTNvIRXW1TfdDSnUhsHwOIlA9AWullx+xkk7SyOX1MmKWYtn6dj+N469INpjFXKOc4JoijX0/iOhtqcsrl47sWBKE3hvZ17Wq+WZAj9XwT4mGDXZELDTPTRWDs36RsoiDlEARhM77628QRJtsq2RsXTIiP6kOgtKjGb2i8TM2SxAiBTqaS0yErwR49uJh+WmRhLHLmq/SEU8QItco9ba3uXJY7qXJIFVSBA98nyOkOJgoeDOujtJPnjNWDMv+KN3hGb24tgu8NJNBw6xE++G/aYKGLB6am1KSMmpZ/V5GmCAkri1i9K8ckbc+XbKVbr/i0yudlj0fNw4Dc4XVBTe+77FpjKuhKnI7sVbSdXv2atawHFAAACAASURBVCci3HAbRq1oeI4lx1gjmA8LAmoh+PuVQws+aEs/R23kfK5uvAvMD9g/9FITEVZWDMtTzwFt+oYt23+sBp+yAjgtXJBlvcbdn99knR7L8uDddK3CjOchreg0HXwZ63wvQEXmhsfVqSRqf0FA9FsyKqhQZ/eNWFl3tpD0nsl62EgaY14peFD3bQXrnT5bhOvq+zjnFbU0f0+ynMvMioiEvuBcitZB9R9sz+3k1BmUMkf0++sfk6Bh4fM5kXjwPkHa8MXDchMkE2pf7V7VOIzBDzBwhLldwf82SlMM6DcstTFLR1qbUdPI5eqJQcbxT7sXlTbNs7jMdvKp9qzDqqzE7dFQzpDyqo5GEJToatTyxm8z4xmAUyrpJfY2vq+0s8mXe4Id4zzQyFuV74QgMGPr0hQEQYlAdx/V8N/gE0PG81cBtpPApZXDC2xv8/H9GLms4SoCW0sQghaLm5cMz09KEFT7dx5Zd40g8XzScWB8uGRE/unpjtXIytrToGl/N0TXdh8R69tr8pfPSK5xrbKPXFav9BO62hb1NREENZ+67m8cDLKXxqTGzlg3VSS00ZVDc59OnT6YYtSy+tcY+IktJqB97NF+uGRw9odOy7RKpyQOAs2TCbpJ3yEhZaMgUV4xLPfuttRljPXyxkUAD0W8yDuhYK6Q7F24/3cv/HfTpj4Zmg8r3wrI0dB8PSAfAvhEu/YzWJkPLlo6vOD+ZH0cuar5NAQC/0nypq9EM4O670ifIKh61WHe2towjQELrKN7MEvt6KUjc79yOh4jllQdT5pvMZivSrJm95A/9/zK0RRj4TR6ac2VkpTEh5Tptd2G+L5kGrhseO7bdr4VaIQiCLItBCHZfSTcrcjjSbSfCQ5x0tnUUzx+GbVY1Kn+HFNvuE7aAu6IBAHoW7YzL78gfziD59objjrrKwsavWxYchMmp5O3vdIFCULTdQT5nPUCNm7/zghCz4b/BiUIbZxLhP0gTF46LH+tk34qggBFEJQOQvwXNGfevGxEcoKgsg1b1nisRvIfLDlk0RD16GC+PYhOeQWVfZy/kU+c92VOU26nR0EYbzTPWANxc0b9zaP9aOmQ3D856fOIpSaCYHGdZKD/sq9BgqDEvMOX1Q0iEiuja93U1+D610G0A4yjw1tFTBeie4SfNV//ZUOzHJGEkcsbtrCUhtlf8Iu98zHRLqHLHy8ZVdgmgqCUBXNa6yYxi0eCMnOLPZi4nliULRmRl4xEpBzqURX1R0gNrxLh7IRqIn8wGrHCq2kPlg/N+ao9pEYG4e/Z0BegmczcMwJnfCMYb0vhvXP58Kz/2HVm2LLqkwQ8n1jv/SEVA5aDjsiQIBjj0dR4JwteocbDZi4pHdVTl40o+jgl6JEETGOWNZytA09H9xar8xY7Ree8U8J7wuhlNd+TEPOYcUFCnONQ45RTLAKPrhye/4tkjpdo+NL6aCyG+HPXPMcjUz446WOdONh1ObRALL3jhfJY1RlXb8SJS3w5ludAkjoT12y4V1sI3AElCMHmDa2o/5bQeD6AOFM5B32NSH/pXabWi9O1n3U+mTNLqTaCXUc0XcfQg3btlmPKW5eNKEwqQQmW0/BfttJBiPBAYmLsByiHwTkxDsLi6yVUQ9CoI7blbUoldlQEQbKcBTNBiJanNJjeWDqiwPZmGd0PmEaubP6R1PU31T4TfF+OXSBKbEnA7iUj8ns4RXzUmvojZAt2RNas0bbgqgq/JxNRjURez+UOFViHL6mLShAsHBGBeRRx/gYgtdVgUw6zr1W5VKhCVgtzQ15nVtaM2c3MuQXdeNeuXcgplFy1/cjAplL4Ux1AI5bUD2Dw6nD413gnPMTY10p8jQeinJjPVcpmkSPd8N4Ywtz4f9QE0oYxZT+Tyv5++JL69wA+O8q9omUZaDO+0nV56YoxhWk/EZnHWj09dtnXMIHBSicg+EU4ULBO9ZwhJT+8fFRhmdN5YpVu2LKGe4nlFELUYiVx76e/EYtJS0c6I5dO26OcqGnc9BATq/f4qEPy2L7uItYeXjoyd7FduaNXNh2nB/StseNqSq3mr5SDjtiVmQRBOSBq9fnGgfGQuQ1BT6DRuURIT4JglMVMw5Y3XCYY6xlsuA8PzufQF9ofiOgrIegGMHeSjMUMPsXGTFJlbCDCw0uH5z+WaixomCIImXpSTFX6IfM7bREdmCBcXMKeU3s2DgBL5W0rYi+fBrz7IcRly4fltslNZxr1OU6qDvYdPRqvBUlbvQgCb102MjlBMBbS0oZUSorNUudbNY84nRmjGXx0Mq+LTFwN5pHZ/t2/KB93iq073mFKghBPEKIbt9JBeGPZiPzUBEGJqVfUnaEHsJGBs5OAKDUfn7lksLOb6PDK+jImnhJzCIY3luCOw8TahUtG5Pw5la12uIxhlXW7QYh4z4ueUtaMP/gea/mbBKgFxE3E1MRQb+fcxCybg4czmgmiUf1baOLVVi130+rB0VgGVhgNXVI/AODV8WNrutntFcBZUvh6kAwsZ8hvR91zx5YYyrOXiKY21tVvXH/XEQmxKSKYLKlTugWn2/WVwZ8L4svSu0Um9lBZ/uzs0TCOSUkVQ8jH4UvgGknavStGtE1iOGxp/XoAyhW6dcQQolbo/GhVS/WsTSbzOMcbQIqEw5fW/4TBc8CIvO/H4avW16aW7Lz+dk+nI5bsPUoia1uyqog5bYKg9q4vjqvv4mmmc0jwgpgLQlxlTNRwWee8oj4ZeG5VEoqsJkV6oaSAmez/5tYogcD65SMLBzgZIxq6tF5SiCCkDKlgUWKCy29HtZqEb3YShCTlhM2r02qvabeIz8fMWzyCOqwEQUGhlMxaBZTizsiI/3w7jGL72kJE81ub/bPWTuyknHZ0qE8tsm09qq8V8PzCbi4R8dblDgjC0CUpCUItQdy+fFTer4YuaRgEKaeRwKkKENu5xFytvNwJT+GzdjdIRRBYl3aultUMf2PFKAcShGBDaPiyxqulVE8uRkTU6NkbK2B5f/mI/G+m8ss+ZEF9D/Ip+/ZYYaNZYYtA77Cgq5YPz9vhdHIMqazbTYgnCIm50wrZYt/XsD+JlYJwXypdoaFLagcAZBCEOFvv8DjvDQRw5ppxBXuGVNZ8nyDmEvBdJnjMgqSYOcHYBvCDVBfYuPxuay92w5bUKcmA4ajLZj59Iln2WjW66BOnOFulUwq5wyvqx7LAQvO4xvW1ikGTVox09kxmVY+yMNBaspVOzKXxa9Pk4uJdEjR12Yj8V9vSJ7u8vRZ9nHW0p8cKgG4nQsSUIKavwBsaeKTd082IJdxdon5XuA7LsSGazTpeg8ZB3YlASIXC8G9qHZNMsFCSyFsAVn5psmL6EMdOGeKXK0Y6s2KwwmLEkrruEjSRmdX+H6O8ad4jbOdveBshvNmanX+FUz00GlJZpxQQEgS78Ww/7MzC7u/mTsWLP6IdiK3GSppsVf5BqLPDEwSF4fCltRdIpjJmI7CLWUU2dIgk4CsJ9Cud9Ult3ZQOxOJXZSqC8FW36mtA2vNWDlOCr+W8dcWoFBIEsJrLnxEo4gfBYt7sB8SdK0blGaZRw5c2XMeSSxiGmDnyJc5fVnLycStHFz1uhcOwyoarGEGCkHBLVnboEm+sHOOQIKgnpcV1Z0FgATP/NBy8Je7sVEdQFRPdvHJkwevJxmZoZd0iZh4bPEgs328ksd7ryN1Fr6WjsT+0Um243N3KsYy9s5nYliY+ocTuRPGtZWClxwFBGFZZ3994YrAwEQuN7V6h8RnLhxcaUTKHL627SEo8wozvI44kRA8VlZM/ExCzNNI3xtuLq3RDKmr/S0QJT2GRVz7Gf0jXr14+rtjSh0M6a2xIZZ1yBmWI1W3WzT6SGLViTMHGdMo1px24uPo8TWgrCTDWh824Ph+APnnNqOKklgSZtkHlG7y4diYJjCFQgVU5wQseJiwdWWipPzN4HncW2fWWESrt5qqTOWx5zsWtsdAcloLF9ctG50XjdGQAyPClzafoMnAfWN4MwIjZYHzWdSbWwPh7gPTe6YwVDamoTYzmmEHjo1lM7y425VhuU19jnWqCeTXRoSUICh6l0Fe0t6EfJM9g4mPtIIvgS/Q+CGNXjMh/06nouE3DkEFmdRsaUtl4NUF/ITF7ZC5tXTU6FUEABlfUJvGkaKykr3RdH7BmXPFr4bqGLKm7VOEJ4MLQaou+G8Y2SIWfnbpqdKJ1w8DFtVdrRI8BKppj7Bf0QiNeXzU6/6fpwDN0SX1flryUTVYHwXGNKL4pM68/rBiZf4nd2CotaL/UPiHDhN5CsTeoi/Cih7RxdmZOdm0esrhuFyj4Jmpe+4n1xJcQ0mFKEi3Wdn9gWunRUksQBi+u7Q9gddRrnEkhJFjvXj/j9MfHFEYOjUEVVZcIaA8D9F2Y4mLEW84z8AkxzfOK/A3xnvEGL675goiOicUjqucB4H1J8rp0Nmg7/AdX1KkASYsTLneRCIq8l1gbuGJM3kvpzDtz2iFL6y+DLpXraJPVjOmhJjgfnxEeMTEd6VO67RlaWT9NSjmVyOSYK2Yt4F9gOXXlmKKXrcpWJsQy4HEgPY3vm1VpCXPJsjtxV7XXhKfuulTxGJzgMqSy4XxAPsLMyioqKmFMYqoQKvdDATlu+eiiV1Pp8MSs6EEVdRLS5Amq/U9v+35bKmQ6gakNaSzr5C1+TVy1voP5QbDq5aBVXEDNdQ9w0Je+pfOLUL5qQZglPIElHU0xMaZfzDS4vO5qFrAgCOGUvHX1mKKUZp6DF9d+yowTbR3VEL0voA1fMTr3z5E2qPor6i8EGR4GkzozAqFO2WevGVcUoxClCIIAPcYWBCEY2I5eXz2mIC2CMKiy9jQh8agEbrCc7crBE9F2BiautrklDl5cu4IJg+38nBCRnwVuO2Zn/i/SkR6o9gxaXKtEtnEEoQ3r0i5r5PptHNUrvRqlfGJQBIFBq6C8DVp8RNiLFj5t1aSi/eafB1XUXaJcNBPjvIiDGqv9kPAxgeZqnvwN5tgNgxbXKhO2oMa9Vb2C3/GS78Z0yZhVWQMX140kcLmt/BvYLZhuWzk2uYQp2YgNrWzoJVmq2AAR/wfx6YnoGZbNk1aP7bb9AIy+UeSgRdX3khCTYzx3mioj4ANm3L16bKHlHnLHon2F2cJbxcpzo/oO5hkHvKURJqwYVfCXVM+BTvEbWFn9U2IxP6TzYN0b07oBsEcQ7snRC55IN7Q5DVxcF+cHwQ49ixuI0SOrEzeZYkHMK0nsMNvthJG/R25PNvmc1GvZ3i0Bz6FBEFTHByytOYUCtJ4Y32Hlmy7mIyVxUjHInyToM1aN6aSc73Tgj2lwZe2VUqeX7OYSE7audUAQBpbXGEpitjsA4c9Sl+PWjS9+2wyIcq7z+Xt1FwiCsmUO2RzbKduJnQCXrR5TOC9cxuDKhqukVFYMiRIE9QpOLH63emzBZWkNAjMNWlw7hgmPgFEQDcccLsV4fNEJeHH13oKbUGr4uo98AxbWnEKC/gBwj0Q8gg83RFhP0KdnMkcGldfuZMDCkiJ2Zwo2yO4mEJ82+O8YLW2z313CyiwHBGHQovp+THJ1lCDE7jmKIDTX8alP3RPrVlb5HRm8uPpCyZ4FBHlOkCTY7IeET0hiNvIKNoSVJgeWK9IUlqpYPJAQ3mK/7LN2Yqetac0Fi8SDyutGAKzCRIeigMZhSbRTE9oNK0fl/jXTugYvbrpIsr8yVjIWt38T/VJKOXldOzyb2LVz0OLaOUr3ipUrcqu5RPQuGJPX2JAhRRCyyLsvGjE1GUNwOlet5nV0/oLgJ8IzJGmV8OX/KZUFTDpjdHHJG54Tu58/hSWmAWGTaNt100qgmTKQv3DtRHIgRYk7TQaU17bdiiEoqrQ0yTJgTEubMA2oLLQVg3+y1Zi2LJyBLdJ76BAEpcg2qLzmMiah3sR7WLx7/15ATl49tnhLGmh+bUkHLK65EhK/Cp0OiXOJeeva8cUpJQgDy2vfZfA37W/M4hUh/VNWje8ciaYX7rQyqfL7a88D0/3MfLUxi6zmUjDqmVLmW7hmbOFsla5/ZcNVpOvWBCHoqP13a8YVpUcQVAi4eY1HaR7/PFZa5KGLT0TWF9nHlD2/fHDt+GIV4CVKEMprniRQbyWGtDBLU/tsKwmMPnZPQVreAsMVDFykCIIiH+GGBX+xVSAO/WAIcSOmWeHMRladGa0AK6VaFWK6hQgtzMb/mkmgBYxfckBfmUrZtv+imn4CtIpJhdAOmXOa9iAC7WVdP8WyHGYaWFFzLkvxFAinJlh4xUqhvxBEDxb5C56aP4maBiyqUU8WncMgJPYVfxEkb8uEkMUvzoEVdcMhuZyZg2LmBHxphwbtqlXj8gwXw5l8A+dVn8geUl5cv29pmaHeN4jeYqapa8cWbM6kjlR5BqvQ4o11ymnZjZHLUOJc+hN0OWbtxE7vWpWnCIIPHhU7xMYSI5bD2vXVci6Z3v+D85paCfwcEW3w64F3m3t2+iqdyJOp8Aj/PqSi7gyd+SWWFo6kzHOUaJWuex5cPyHny3SeFsL1UP9FJoKQ6oJu0XqrLJFkbRE6JCF5SetUlacSasQVwIQtfCgRhKD/dq+/pX6QZOONMDjxg/36UjA9eOw3C9aWXkIBpxPu60zXd2HNlYLwK7txJcbWteNTPzEMWFT7Nyb+tgprFNOfSMH0C9Zw9+M2dujKfOzz7o3nQurqueFKowzrC4V6NthJJOevHVdc1m9x7dUk8ViMBMH8VAn8bl0GBEFV37+8diqYVaTHoHlT/EURUIqoT3y2r2Bw2I3rkMr6bwZ0uYmZDQuNyGKP+W9aFmihB9bflZl78QGLapVfhaAL11BfzfsSMx4QUr4YkGCheRlQcYp8rHmCNKAVfgidWXhUqAFA08ABycqnq1R/Z2LppSwZCDSzTlnSozdxS45Wf8quoppUzyH9F9T0A2EVETyxwxfSaWHsbWzST95kY42gOF2/uXtPIa9P+aM4It43T+w8pd0axF3H7Mt76vOutXvBQQ1zS9kI0e+lHui7fkLnL9q63vqX1yp30uVkOvRitlumHSTE5WvH5r+XaV1qPXzRte4Xai3ExwSITG9CIzM9cPy+gvmpxiWTdgwob7geHHiMgdPsZM8C9GsibcjqsXmWzxzqWVavr1PSnZywIyNjjBLXkrXrgFDDLedS/B4h8AGB7m3oUfDigSAGYQzV2GztUvd7MCvF2tjdJrwmiX7PhLtP2FPwf5mOTQxBSCagtxvclId1XEYLwVva8ybdOk17WKSumL4eggRBdaR3CftyO9cuZGBEaKOuJealjfu3Td9UerZlMJu0wT4IGfrNr+kFgZdtCQJ46zoHEoT+5bV/ZOYf2MYWYTzNmu++9WNzPrPrlrKq2Nqj8VwOyMfA0lJvICxYAGgvgWeyx/MxAvostnpiMCQI4rV14wt+lgmU18zYntupOHc9EcX4+A+XFZrHtQR6ZN34oESj34Lq50B0Xfz7tGlTbwbT9HXjC+dk0iajjoW1O4AgQYi9VAdLJEL/deMKD3osBlX3gIU1fUM6CIqZRL6oqR7t8TS3nLR6Wjflqtf26z2zrltunvyP+e3bqq8ANwpNG6ykGyAytMsjZ08og/Fvotc1v3/AmsldYtziZjIGfRfUDiUyCELEvC62r7RdgC5bMy42MFS6dfVbVFcOyEFgFWHShKXpvxlYp5P3/ifH5Sb1NZBu3YNmcYGeXasCFqn9TbMhCMpx1rp14wqG2SnrGuVk1e4ABTX/re+t4n7h1Z8OtErbSxUJ0QtM9wI4NsHsM1SuikxGAo9yc9OsZD4z0sXCKn3/hTXrGaTMLA0pksXZ+ksh6O61YwttvUymagf1W1CtokoE05mocgKIoTRJTQ7jnhIMf14xk8pUqo0s0qrelGaOMe1OUmdo50rsK21B1iH0xGAGlZn6Lax5WAXhERqVrRtTUNZeyjCpJk97/X7nvJorhAalbW0KmRYzE7Y+PiH1E0PfRXVvkNR/HF4r8XNJgNYKr/eBNaNzU27Qty+sPl+DUgTiH4XLM/kvC3ZdOachVBHwZ2KcwMxnJpBsI9wuXls/vigjgqCqGVBee7eUPAXMXeJNmiJrVogV2VkFdzU3158H4nKzNCMq0g9f9WlZEQrGp6uwZB7vfgtr1DPLEXZmjgzu/8SE4q+FIPRdWNOXgFUxWt6xTgL2NHkKT9zkIKTzwEV13XSW/wK4W2wRQSzD/TeiVAe9XMZuQGaHE0K8Ao82+PE0/PHbrbF+C6uHMKOciGJDAkf2cd4uoV36xARnzrTs6um7sOZWpZAJcE970z9qBdPE7Jz8Fe311m4Q9U51AxlGREPDIZelmS7zViJt2rrx9uacg2btKQhk+xR5CSp1m8YksjYYQ0+oLlqb3GsqU7/5tcosegJRyBdBTECm0EsPYzfrPObE2qLnMr25O9lb+y2oe4QhJxMhK8bxRuSspucDgdZ7np7SNXOC0FcRhAP8JXhITvJ80F5NSa/OQ5gghABTC+pATsb2Ghercvovqv6ZlAZBiDHbMaXdut4JQVhQ/VsGfmrnHZEhlgU07cENNqLI+Lb1Xdz4PQT885j5e2byEu/8R0VZZFLBIK002kgy8LsnJmROENTY/rdTza8AUiQjpJSasGx1gB4B+AwlXLIeL2PhKVfTM9dPKIx44ctkbPsuqNkO8JEhppRwL/taCcL8qr4gZcUQP58i9/898BedsP4usvWKGMWE6c4FdacC/LIKmGaodtqaaFrLF6Jl0csk/cMen9TVccAe24N7Qe1gZr2cSOTYtOcrlq0XPzGpe5ucMinT6qztNa8ToIiySSE6vq/0KYEmZOcUvNJWkjCg5LPsQOdO14LpYVIugyNfbJ0hUvZH0r23PT7JPgiSIgj+LN8XZoW+WFyNIe33ZXXh06miLfbuvVHL/uEVK5n5diKzd8lYvTcC/Y0FTWw5suD/DtRTQ98FNeMAfpRD0p3ovhTB6flAINA2gnDn/HYiCKnWRia7UKo8mbw1WJZJWyj7EJUgpMLoEPi937zqn+rELxAox2hu3FxiYOuTE1NLEO6YX/USQfRCgmVHCASixTq0h5+ekB/xqpYKnn4L6y7Rpf4YEZ0PtjabS16Gsi7g3z0xsThjCYIq/855+8cwRGmiLXikb8qesgoMLwH5NgRBMvNz3k5F/Zx6UrPr253za7aDcKStC0r6+iQIdyyouZMkVkFt4FZ7BGFPTU7R8S86jDuhDgXfD674PhEvZ+YzkrnnDs5f87uCmWrQC3pL68gN09puEnj7vOrBggxPikGHOeZ4GIauHLYFOOvCDROtw/immvfm32+fVzVREClfIYlm1SZ8mfAfATyQk1P0W7P5p9O6FBH+pEtTT9IDVzDJEhVMy/IuGeorsxHoo+zJicWPJKtDEYQWn1f5SOlsm07glpYji55zcpj3nlfT2UfyOQJdbPm+FhVSbCIhpp9UVfDxgbi8GfOc5VKQyLNZh8/rehsJwh3zHBKEVMoDqaQCmcopbB6eIgdJqtnnoF4GbdF0cVWmClupmuD+nhyBOxZW/wQSv1DmfFbjqgjCU04IwrxqFfBJvb3HmX4G62eieR5v4czHx5ClVzW7Voba9ygY30l7LAnK/PC1JycWX552XlMGdZPzbqv5HZHh0ElYPqRaK1SaT6idRPzgExOLl7SlLSrvHXNrvoLgnnYWjAQqZaV4yqxDenSmVgmPVyfJumxlCY/6O+vky9L1pgZJWVJHIEen3ALdX1slURDQ0dJNx9HQ9/xrs9w842IVgdHBajbadicTVhI4y0qmw8AePxcdt2kSNTnFQcVD6dml4WLSA2UMnJP4lGAqyWYvZMJzgv1jn5jYzbFLa9s5Ob9qEEALwSEymFjnNl3qP9jQDvoOA0o4O1BUvVESXW30O8k8Y6AeoDmQ+lvkzf7nk+NSR3dUOgL+rNozJfMxkLiRCTcRxVkcxNep/JMS/Ym9vr5PjclJasptEASvV3l6tA1Pzpq43n9kwUtOCIIak/7z9p0VIM8zCc7RYmeoshBcIptbH3r6vh6OLyVO5+QdC2qvBsunABRYCbWY8Dy3lSDcbhAEa7UNpw1NTOekPCdp0mmBk/Ks9hc132mLxyUI6YDdrmlvn1t3CciI5mgRiMSITbf16UkOJAhzqzcwuDeIrAkC8FgWFc3KxB741rnVPyHCYwSowD4Wqk7qb5Yng0EQnprUNoIQPJSrb5HGwacOhTgV7FQjogwEiH6bl1d0bVtFwKqq2+ZWfUVEtk6BGFCbtor46CdmpUjmZyJlG+6H+jfDz8R+AvmVzTgk+xnCD+NvKg35GcF0JFR+4WdAQuqQpL/2zKSuH9sRhtvm7r8TJBROsf7xI+NGe7bXFB27udQwp3T89S5536cVH3OZYPkgA+cGnxucfKGxInrG72+dsGlqdyM2Rlu+2+ZVDSSmhaAQqU4s7EtB3u89MdF5fI1k7VE6OaxjFQHnJG+3Eb9QvbhVg/A8AX+TEC3ggBpDFYgrAEE+yZwNqaRd7CXQUSC6hln5MOFsG5fgMdUyaCeYxzw9uVjFLEn6XTtrT0G+x/tJrOfP2KHTia48vbrwlXRu+rfPqbkcJJfAwr22qUF+yfyIXlv86KZSalfF8dvmVf2YoBzMUZxkJzTfGM8z6217Yrh1TlWwNJubesx7a9wwJLvcm4sMmoeaMlsxUAv9xVTbsPVxH60npl471hv0SLfFIzVXgpBqpR2g328tq7qYBG0C2GD4ieNKWzdMTk0Qbp9X9Tgz7oh4TDPZ5QfLlQ/lBmRZKu11u27eNq/uxyz9swBSOgnBL/W6kQx6bcPkthMElLC4tbB6MxjK82Ns1cY8tm55cPnRLkh93NN3dcnYN7+59FvnVBleA5PVGQ9PqukTM+5x/MfoGhErpTJivuPUuk7P2G3mt8+puUOSVIdZI31fZAAAGBJJREFUAkEwsCDaU+3Zc8yvk0TotGurCh7UKdD1CmYqYcK3DD9YFlPBJv+T0FonPz2h7bfJ2+bV9gfrysTZzpvqlx7p+XZ7SkVvX1B/OctAKYI6OY4+BgUIrCKhtoLRwIRAaFxUoCMfkVB+OjzqFuB8LlGNssLZUVe4JJXOgGpk7wrO9zRXf8SAoTMTeRWJ8DYlk6OfnFpdtDkdgqDKum1e7UCoOCzM3RL2rUj5XMfwTN4wuXCFI9AcJrpldvV5JPh1hBUmzZtncH94Hu1GEFLciVIexg47leqlIsmem7AnO5I32izeuLxv+9hzZXsuJodwuMlULNk5VRcJomcQsqtPkAWRM4Jw69zqlWAeaLbZjjm/ie5vrGuc/+KMno2ZAt9nbtUlGtMjDL4gXEaKtaEIwqvPTCm+ItM6zfkMrIA348uK5+BxvyvPEH/aWVt8qZMN1Uk7b5lTpbTCj7IjAVaHZvzfUv3bqh0qDzPdsvGuok12jl9umbP/DoJYqW6jcXtmkHwS9sjar47O1BRYKdE1FhRfIYCHmHBW2KzWiiuaVSAIWOdlz9T22GdumVvTDywXUVxkvwimhC98Ldp5j98bjTfhZFxTpbl13v4LWdJAIuoX1slJNo5OyJPd3S1+fSksibCDgfsL84vXO5WE9a7Yna81eZUmvzFfrcrVNO1HT0wocBzuPFzGsGXbc2vrc8eCMYND882KpzPhKw1i2FOTreNFpMLd6vebFtac4vHLv4Ulr/H1ErUDQbilTEUFDVUft9NZX/SjfzX7Z7BbzOG/J4CWRp3BRX4A6yW4BCGTGdpOeXrPqf2RgL4BHLuATSt56zNTO6X0pHjL3OpKqBgVIWXC+PnLTNPqsosW/nocqRtNRp9yc3pk/rkXSeUCGfx9oxBTRQnkBirSCb+6cUrndiEI6nS8dV71K8wIemZMxpJDa4yZ68DotXFqZ8tod5kA0WfO/m3EdFSYmEQISrROo9ike0QkbbAFZj27UGaL3ZxaGHzrximdVBhiy++WWfvvgMBKwMIEMJhjz+n1xT2Tm7QlR0WRhKb84suZMAfMJzvqK9FK2aLdu+neAvX00qav95yavsT6IgJZPMsZRX/RUo9zni9t5xDvzNR7YdUxwi9uAbE6GE3BqUJdCjnVDalqxo5rErFzqrkEomcJvLqooNNrTsmBapEiCKLR+29QqK0Wa4ak7zsbpua+7VTPxTx4ty2o76Hr/nsJNNbwvGnDjhl4lzXut2lS54ydV5nr7V1RfwQ1+f9lKF9as6znBdr4xNCnbL8STobqTcXlrHYkm5Pe1JP4mOyh7cCizuAyS/wstl0jkf3uaG/maNFepr9nkadXezD7Nq36wzRzn9n7f0hETzIQCtUcz1Rp60YHBKHP3KqFkBht7YPfmFkT5XHF5U4VkeyGQ3mxrK6t+TEpEyNDJyHpupEA/XbjXcW92mt4b5ldfRITh8zXHNzRiP52Rl3RBemKT5O1t3dZ1ZcEHG2dxg6PBMoWOVFibezDpVqeJjuIecAzU7v81q59vctqbifIlQDiTAAjR9ZuPq64Z1vngXpuyPP3uEzIwHIY4usUMgQWSzUhpj89JRhmui1f71lVfUlggeHaOfLFXKI+l7nFZzvx9ZB+O5h6VyBPNNWewSzvBDAQ4IJEl1lR07/gE1H8/u7svCGifzHRQtZ8r+BPOV9t2kR6Om1WBAGNnvejoeAT14wGPufpuzq9l4k7YmV98e+C+tNJBpRk8fpYc8NwS406dQb9prmhuM+LMyhjKWa4xL5lnNfM1Z8D3MVANjL9wswbz+tCv+e5tvhB6D1bEYSD9YUX6MGqzzwhk3ST6O/ZcAnCwRwVc129y/ZdAKYnAJxo2QbG1k3TOqeUINw8u7qMICfaRbhjxuhnp3WubI9+Kq32rjlVlwmB2QycnaRMpaT4201TO7cbQSgpKRH/zp/wLJijkR4tHY+FNgofH7epHdz7mvt48+z9XxLR0YnmVXZr3MHaj3ExYL1eSdB7grQRGyYXRiNyxoHfu2z/7WBS771xwX3CCcVuvFXUM92DxmqMzx+2xXviKSddDeb1EZNDa9+SSgpaoQc8Jb9oB7H/TY/tv1MIWhA+HCz8WX4OT6cz0rHUSHtdMNO1s/fma6CjPULcyIwRQdIYN9YOxjXoXiI65kEfB+KfEqhg4t9qxxbv2NQnMyW/3iW78znX+w+iuLgF5jp9ntM3tcGpVO/erOG7+34MaHPAONfu8mroApFn3Ma77B07OR4HJc0pq94JQvfoHSWGJLadINw8u6rtwZpS9Si1kCFVCen/nkadDLzjD/h7vXAATFHSb7izHLc8tOukQJZ3IpgvhEA2sVBGYGqJNZCg17QAV264p+1R45y1pm2pej+6+2TWPBOI+VtMQikSKRe+OeFAOQSHBGFW3Y0AX6Hc+RstCtsyhOIcEvjJjdM6vdG21ppzM/WeVX0Ng5WL40hIXOVuFYw9BOyEhp1gsfnZqcWGG+T2+m6YWdtF8wSWEFNXJmW+JbuBSd0mY2z/WdA7z93V6bz2qjdcTp9Z++aw0ILi7XAcSSvbkfjfrP4dn88uj2Gqio9Iyg2b7raPZ3BTWc33SOoDSIig46248khS3cZphZMyuS3a4XhLWdV1usTPDR8c0fNRWWnsB2EXGLsIeDJLFD/rzEFT8hG7Zda+7+sQtxGCrp2NuW6K50ka9u2ue+e+zaWXHLR4LL3ncY7eUnOkRvr1ykkQzBKmVNdQAzMKMOEdYl5LjJf+2+m/O94e/m0VmbZNX69FnJXbXDNDcNAjY+QLzzuG3uJveaDN+38Jixvza28VrAK34WjroE/0meTA4J9P69Yu+1DvWVXlTHw2MfXkoOOygnC9BHpe6vo9z93bBk+KN8+qUqFRYpeolZTfboisFRViU6fzauBkKli9ONi9QsSXZynVonf8gdZDgiCom2uX3BoV5lORA0O0lPAqo17BJP+NBN317NTOf3ACaUdLo+z+t23b5iv25HpFQ732q3uOq+pobQy3R8VLCHCWJ7+2s39PIfztpQiYSX8VbvU74dFb4Mmt3+pt6RJoykRbP5O6D/c8Vz1a3Unm6Xp+oLN/Tw38m2fAse+G/0Xsfla2M69I8xQDojMC2lEs9eNA1N2Iq6AidrKsl5r2MUCfs+6v9xd33u/UeVVHxct4bihCVsvOvcEw3F2Czhf27gOyjuga2FSDlvjQ7O3alxIWF2OrrzA335vVyIyzujW15SmNbnpsvx7V+k5F85J1JZEFRIm0VblpXPFtq7VmMsF67fqSKOok0Lt+3X9Fmxlku460dWE3PlrzHVCgEqBvRxG0xLeRGJOfvbvTMrsgJgehuW4VLgIuAi4CLgKHKAJ042P7A5zMhWzI3jpyBMWdRTZeRdsMR7JnK5s4T5nXSfSufogQhBse2383mKcC6JSqw8R4OKDJ2S+kiFqXqhz3dxcBFwEXAReBww8Bun7mPuXdLCZuuhUMdvd9K9WjVLIBS91kG+zTKT+ZGlTyOukfUvov7+gSBPW8UJS1v5IIQxRvSyYjUXAysJZ1PPDL+9seXvbwWxpuj10EXARcBA5vBOj6mftbAHNUqiAgdo8CTp/67cpQf7dTcfg66jTayfgnI/Czjk4Q1JteTqun0nBSksTIM2rtQr/UWd79YhuUVA7v5eH23kXARcBF4PBFgK6dua8Jyi92yi+ZXMCpTMCBqVNMO1KVm0pWYaYjyfQrxD8B389euM95lL+UcB2ABL0f21/UKmWFcidsXXwcHkSvgWnyC/d1/ucBaI5bpIuAi4CLgIvA/zACdM0j+xrAnPs/3MeUXSPQe6Csyzo6QVBa0pquVzD4tpSdCrqu/4MEJrx0X7e/O0nvpnERcBFwEXARcBEII6AIQi1L5QUr9KVj4qiypGnmGLnjpvNWET9ednmTOOayrDcqi39fUNZPOzpBuGHmti5+PWcxwLfaClpig5H8hRjjX3yg61vulHcRcBFwEXARcBFIBwG6+qF9VQyO9edt7Rs5nXKNtE4eACKFxtRpzp1etWnVaQQmNRr6Lw7wT18ubXsY1vRam15q5RynRW+pINAtjvBl/B8JjHvp/q4qoIf7uQi4CLgIuAi4CDhGgK58cI8KHGKE2bU60uODrcT7Fwj+bn2lT/RF4NwmwVyvdZ3x4otg+63rtE4bbTf9G7r8ySFDEDhIEFL1lYj+xoxxLz/Q9f8czwg3oYuAi4CLgIuAi4A6UXs9uHc7BV00xrhVt43NbeUHIQWU9oGTYus0jniLJ45k+e2qTpUnVmBBH0DKSw8VggCGQRAiX2hMIiFIQhi6BMFd4y4CLgIuAi4CmSJAvUr3bEUkil7CmRP5QzI/CJlWbpWvLV6UM20HM/1HsLzkUCAIzf6WCiCOINh2nN4iwlhXgpDpzHDzuQi4CLgIHL4I0BUz9nwI4NTDFwLjZeJDIfniQ4EgNLY0VxAFnxhSfoy3CWLMr0u7/DVlWjeBi4CLgIuAi4CLgAkBurxkz7sAzgn+LXR/t7RkCP0xXnYfLizsc9kMb4I4wFRwvO9mW+uJ2DCgMaPX1jpVYUa99JHG/ONDhSCAQhKE1Pi+Q5oY/ZsHuvzFnfUuAi4CLgIuAi4C6SBAP5ux909g+YN0Mv0Ppv2E/HTRKzO77ejIffuJCvHb3FwRIQgpGkvAP6XGo159oMefOnK/3La5CLgIuAi4CHQ8BOiyB/b+hiEvNwsQYm/pNo023V7NioWWbhFSpU3HJ0JYyGEljIhz4xwRdoQCTplkJPGGF59qOl3YkQnCD6fuKcjNkReA6QEGfhgRfiRVLuV/C6YRrzzU/ZAM+dzxlovbIhcBFwEXgcMHAfrp9N3PMLhP8LwN/l+z+VyimWMUnNQ+lYKnefD/WrtNDpefrM6Ygz1JLIdoy2JLC/49ykLiTSgJ+EzTxQ87GkG4uGR3vgbtR6TL7zHJkwE6g4L6IiHHVmZ8YyhDEHGi/xDrI1596Mg3D58p7fbURcBFwEXARaA9EFAEoYKZR4ULi5jK2ZSexFmhbXti8tiYQ7R3vbbP86YfTHV+7pHigo5AEHqV7Cv0S3k1g5WU4BTDwoTRA4Q8MHuSDXq8mSNAH7CGEa/P6P779pgsbhkuAi4CLgIuAocPAvST+3Y9wIRSqy5bOVRsJ4eH9mTC4jkilU+DNg8XiS+0lqYLXp197PY2l5VBAZfet/coQfq1EnQxwGcwozuAQgDZFC/CSaN8Br1LzKNff6THn9PI5iZ1EXARcBFwEXARAF18754hRHLFYY7FVx6P+O6rpd0ODkFgpoum7zpeg7iVJfciwikEFDLIBySXEqQ1TkSbdfJP+v1DR72TVj43sYuAi4CLgIvAYY8AXXT/rp8JiVdSIpHwNGB11U9RSrrRnlVxMXls3DjGvyeYm+EsOMMOr1d8+8AQBKbevSH+2+ltUdTtpJ5Sbx0AwdcAOAugaJjtZPgaOChzTwf4qiRRE9KVgjwzXn+k61cpx9dN4CLgIuAi4CLgImBCgC69b/txutQ+ibm5ptY+TBNEi1M6HcuFNGsLJk+h7GBOAtqlUev5rz9yTLscpBeXsMfTXJUXkIEc4eMTpaTeLPgnLPksAkSMvmZGfYvPZNnXZin5riM+PWLJpk2kt0s1biEuAi4CLgIuAocNAnRxCWfL1p1/Aug8u16nc/F3kra90oTb2+byCHs95PlWW27avcZyVkvhvq6BQKAzE50KwuUEvhCgkwD2JptRTtqfTl8BSAK2EPO0zY8dufmwmc1uR10EXARcBFwE2g0BRRA8snnXaCYqszzI4qUJNmJuQwJuJxVIJRq36o61VWRMSss6w5KBtOqkKq+mfSNdgtBrEWfV7t57vKc10FNqdDIYl4Dou2B5DAx9Aodfpn21EhwwdCb+mIR4RPN237C5lAIOW+EmcxFwEXARcBFwEYgg8P/tnUtsVGUUx///b2Y6nQK2tKE8CkVNeRVEsaBRkUQT4s6N1sSda3cufCQukIWJITHGx8qtOxYmaAyJiaagoiQ0EKiIUUHBgALWgkAfc+/3N7cj7Uw7d+ZOO7UlObOcufc75/zunXznnnse41vMrtf/WuPD4F1CuwUsnsqn0v5V6W1EknHPk30QSqXWV2a0dqnHEMkt6oxwPe3zm/v2rf692r0RNSyiy6/3wN0E7yX4OKT7Sa5SSYLh9LhAqcxJSXWxNTKGvE7gK8J9lB8d/eTbd9YMV7PHfjcCRsAIGAEjEPuc3tu7P3VxwxNdDMJnId8DcKuETgCTofH/drFypY+xaJM2TYh72i/ulhjTjbGs7CRyi9dzvJX2mQ19+9rKOgg7XxtaqnBsi5zf6MgNkqLXMRsArAR0u7tU+R2/WMEkyZRFnRHjRm6X2DzuGGCYwiHRHwLcp980rvgBe+ntljcCRsAIGAEjMFMCJQGAR166kMuks6vDNNbBq5vyW0XukNQFoGKTnpkqsBDOIxikMpl7D7/ZdqGgj7jztfMtQLZHXtsgbRG4CYyiBmgVkFoAekeeyTkBhyge8Q5Hs43DP/XtvWdkAehmKhgBI2AEjMAdTiD2DcEjLynnGi4uU5juEP06Uj2A2yVoKwRXYneSUsIE79lrZlmL3Io5CZRjapPP84ZLBzsF7RCwmcQaSSsJNk84BXWTWYO1k+xE8A9IX3vwK0InPRt+6TzXeskqFWrgaYcaASNgBIxAVQKJChq79ww0tN9ovSufUptn+m557QS0G9C2yWS8BHH9uFHRkZoT8fSEcfjCk36RgTGmJJUpdwQMlwBsJdksaVGhVrJaluYs5cZeool1BfAKiD7KfwHyhEd4MRhyg/0frhwGWFM6ZtU7wg4wAkbACBgBI5Bo7tEUTFG+wo9rdzUuBhYFznemPJ8Q8LSgHgK5qdv2VMqFbS9KEKy8r9UScEj2UH87VSBWblQaWBIZSeKqVD6mqsxK7scgwQOeOOhT7F88kh3MhVeHD77XNQaaU2D/XiNgBIyAEZhbAokiCBVVkIjn4B5ae62TGtkN6nkpGkeszO2gQKWH+Li1yymWpIqy3jLj4hTTdCmTxJnk0k3aOb7p/ybi43RKB4bODn53untzgL2RJ2UOQRKWdowRMAJGwAjUj8DsHYQyujz2yvlVYz77JH34DMhHvVcTiSyJtFT60By3oSfK4C8jO26wU7nv6zkEqtpgq/G4yYQTEfUm0CjIYQJn6PhZgPDz4aZVA6f3cqx+l9dWMgJGwAgYASMwMwJz4iBMqCLx4dcvt2vE7/LQU5B2kGwD0CIwR6g02XGaDXPejzmG2pzIjXoSDAkYInQGjgfldFhDq872f8j8zC6fnWUEjIARMAJGYG4IzK2DUKzznj2u+8oL7Y2Nme1UNNYY2wh2CFpOoCXWvOn9hmZHIrb9YtGySZIaqmkRJVmQ/wC6DPIPSSdJfhkSx46/vfK8vTaoBtB+NwJGwAgYgfkk8P85CFOs3PHy5RUIggc8sB3SVpBrAa0VsGxqsuCMAM1JEKCyJgI9vK6R+A3kOVADROpYOJY6dvyD/2mU9Ixg2UlGwAgYASNgBEoJzJuDUKxGz6uDzS6f3xyG4X106Ja0UeI6UB0Eks80mIerq/FIAf6GcAYOP9Dre6VwMh9mBgZa2q9YR8N5uCgm0ggYASNgBGZNYEE4CJNWiN0vXlmUy/p7gtB3OWo9wS2i7oO0PspbKBxbNEWhKOexuHRyumH/lRyWZBNW9pYKUsoXXBK8CuIEgROSOwWGPyFM/Xz8vRVXrQxx1velLWAEjIARMALzTGCBOQilNKJR1NduXFqu/HgkoVPRjAjqQRRmIUSvIko+hbEEtX0StFoquCOMZhv4SwT76fitk05JupDPLblw6q2Wv2uTakcbASNgBIyAEVjYBGrdT+fNmt5epU6v/r05C7QGHm1Eah18+DDA7QCiOQnNt5UrFySIcwRKvp9OIyo5PAvwCIRvBJ2G0n+ONg1d/XHfxhvTRkTOGx0TbASMgBEwAkagvgTuGAdhqtndvQMNDR0dTQz+afKZzFIF2ET6Hnm/DY5bKKyofajSeJTgHOiOgjzqqP7A4bzkb44GIzd/fr9rzKoP6nsD2mpGwAgYASOwMAncsQ7CFJxE737Xs7TX/TX2a6qtIetuLcktS43cWg+nLiesAdQuoglwTYCiyZS3CEZ9CQad9GvUm2DMB2dyQfb6tezNcHVrV9j3BkLLJ1iYN65pZQSMgBEwAnNL4F9bwJ+PSY/I7gAAAABJRU5ErkJggg==;" parent="FNH7iGGvDMnCWm2y9Ed8-1" vertex="1">
          <mxGeometry x="-804" y="64.5" width="168" height="37" as="geometry"/>
        </mxCell>
      </root>
    </mxGraphModel>
  </diagram>
  <diagram id="OVpzykuuQuvtY8uX1TNP" name="current version">
    <mxGraphModel dx="581" dy="940" grid="1" gridSize="10" guides="1" tooltips="1" connect="1" arrows="1" fold="1" page="1" pageScale="1" pageWidth="827" pageHeight="1169" math="0" shadow="0">
      <root>
        <mxCell id="0"/>
        <mxCell id="1" parent="0"/>
        <mxCell id="UFDwBElanjYIAtB_f4RN-89" value="" style="group" parent="1" vertex="1" connectable="0">
          <mxGeometry x="1280.5" y="151.5" width="120" height="130" as="geometry"/>
        </mxCell>
        <mxCell id="UFDwBElanjYIAtB_f4RN-102" value="" style="edgeStyle=orthogonalEdgeStyle;rounded=0;orthogonalLoop=1;jettySize=auto;html=1;startArrow=ERmany;startFill=0;endArrow=ERmany;endFill=0;endSize=12;startSize=12;" parent="UFDwBElanjYIAtB_f4RN-89" source="UFDwBElanjYIAtB_f4RN-84" target="UFDwBElanjYIAtB_f4RN-97" edge="1">
          <mxGeometry relative="1" as="geometry"/>
        </mxCell>
        <mxCell id="UFDwBElanjYIAtB_f4RN-84" value="Stock" style="swimlane;fontStyle=0;childLayout=stackLayout;horizontal=1;startSize=26;horizontalStack=0;resizeParent=1;resizeParentMax=0;resizeLast=0;collapsible=1;marginBottom=0;gradientColor=none;swimlaneFillColor=#ffffff;rounded=1;" parent="UFDwBElanjYIAtB_f4RN-89" vertex="1">
          <mxGeometry y="-13" width="120" height="156" as="geometry"/>
        </mxCell>
        <mxCell id="UFDwBElanjYIAtB_f4RN-85" value="country" style="text;strokeColor=none;fillColor=none;align=left;verticalAlign=top;spacingLeft=4;spacingRight=4;overflow=hidden;rotatable=0;points=[[0,0.5],[1,0.5]];portConstraint=eastwest;" parent="UFDwBElanjYIAtB_f4RN-84" vertex="1">
          <mxGeometry y="26" width="120" height="26" as="geometry"/>
        </mxCell>
        <mxCell id="UFDwBElanjYIAtB_f4RN-86" value="city" style="text;strokeColor=none;fillColor=none;align=left;verticalAlign=top;spacingLeft=4;spacingRight=4;overflow=hidden;rotatable=0;points=[[0,0.5],[1,0.5]];portConstraint=eastwest;" parent="UFDwBElanjYIAtB_f4RN-84" vertex="1">
          <mxGeometry y="52" width="120" height="26" as="geometry"/>
        </mxCell>
        <mxCell id="UFDwBElanjYIAtB_f4RN-87" value="street" style="text;strokeColor=none;fillColor=none;align=left;verticalAlign=top;spacingLeft=4;spacingRight=4;overflow=hidden;rotatable=0;points=[[0,0.5],[1,0.5]];portConstraint=eastwest;" parent="UFDwBElanjYIAtB_f4RN-84" vertex="1">
          <mxGeometry y="78" width="120" height="26" as="geometry"/>
        </mxCell>
        <mxCell id="UFDwBElanjYIAtB_f4RN-150" value="zip code" style="text;strokeColor=none;fillColor=none;align=left;verticalAlign=top;spacingLeft=4;spacingRight=4;overflow=hidden;rotatable=0;points=[[0,0.5],[1,0.5]];portConstraint=eastwest;" parent="UFDwBElanjYIAtB_f4RN-84" vertex="1">
          <mxGeometry y="104" width="120" height="26" as="geometry"/>
        </mxCell>
        <mxCell id="UFDwBElanjYIAtB_f4RN-88" value="working hours" style="text;strokeColor=none;fillColor=none;align=left;verticalAlign=top;spacingLeft=4;spacingRight=4;overflow=hidden;rotatable=0;points=[[0,0.5],[1,0.5]];portConstraint=eastwest;" parent="UFDwBElanjYIAtB_f4RN-84" vertex="1">
          <mxGeometry y="130" width="120" height="26" as="geometry"/>
        </mxCell>
        <mxCell id="UFDwBElanjYIAtB_f4RN-115" value="" style="edgeStyle=orthogonalEdgeStyle;rounded=0;orthogonalLoop=1;jettySize=auto;html=1;startArrow=ERmany;startFill=0;endSize=6;startSize=12;endArrow=none;endFill=0;" parent="UFDwBElanjYIAtB_f4RN-89" source="UFDwBElanjYIAtB_f4RN-97" target="UFDwBElanjYIAtB_f4RN-110" edge="1">
          <mxGeometry relative="1" as="geometry"/>
        </mxCell>
        <mxCell id="UFDwBElanjYIAtB_f4RN-97" value="Item" style="swimlane;fontStyle=0;childLayout=stackLayout;horizontal=1;startSize=26;horizontalStack=0;resizeParent=1;resizeParentMax=0;resizeLast=0;collapsible=1;marginBottom=0;gradientColor=none;swimlaneFillColor=#ffffff;rounded=1;" parent="UFDwBElanjYIAtB_f4RN-89" vertex="1">
          <mxGeometry y="210" width="120" height="156" as="geometry"/>
        </mxCell>
        <mxCell id="UFDwBElanjYIAtB_f4RN-98" value="name" style="text;strokeColor=none;fillColor=none;align=left;verticalAlign=top;spacingLeft=4;spacingRight=4;overflow=hidden;rotatable=0;points=[[0,0.5],[1,0.5]];portConstraint=eastwest;" parent="UFDwBElanjYIAtB_f4RN-97" vertex="1">
          <mxGeometry y="26" width="120" height="26" as="geometry"/>
        </mxCell>
        <mxCell id="UFDwBElanjYIAtB_f4RN-99" value="description" style="text;strokeColor=none;fillColor=none;align=left;verticalAlign=top;spacingLeft=4;spacingRight=4;overflow=hidden;rotatable=0;points=[[0,0.5],[1,0.5]];portConstraint=eastwest;" parent="UFDwBElanjYIAtB_f4RN-97" vertex="1">
          <mxGeometry y="52" width="120" height="26" as="geometry"/>
        </mxCell>
        <mxCell id="UFDwBElanjYIAtB_f4RN-100" value="quantity" style="text;strokeColor=none;fillColor=none;align=left;verticalAlign=top;spacingLeft=4;spacingRight=4;overflow=hidden;rotatable=0;points=[[0,0.5],[1,0.5]];portConstraint=eastwest;" parent="UFDwBElanjYIAtB_f4RN-97" vertex="1">
          <mxGeometry y="78" width="120" height="26" as="geometry"/>
        </mxCell>
        <mxCell id="UFDwBElanjYIAtB_f4RN-101" value="photo url" style="text;strokeColor=none;fillColor=none;align=left;verticalAlign=top;spacingLeft=4;spacingRight=4;overflow=hidden;rotatable=0;points=[[0,0.5],[1,0.5]];portConstraint=eastwest;" parent="UFDwBElanjYIAtB_f4RN-97" vertex="1">
          <mxGeometry y="104" width="120" height="26" as="geometry"/>
        </mxCell>
        <mxCell id="UFDwBElanjYIAtB_f4RN-116" value="code" style="text;strokeColor=none;fillColor=none;align=left;verticalAlign=top;spacingLeft=4;spacingRight=4;overflow=hidden;rotatable=0;points=[[0,0.5],[1,0.5]];portConstraint=eastwest;" parent="UFDwBElanjYIAtB_f4RN-97" vertex="1">
          <mxGeometry y="130" width="120" height="26" as="geometry"/>
        </mxCell>
        <mxCell id="UFDwBElanjYIAtB_f4RN-110" value="Manufacturer" style="swimlane;fontStyle=0;childLayout=stackLayout;horizontal=1;startSize=26;horizontalStack=0;resizeParent=1;resizeParentMax=0;resizeLast=0;collapsible=1;marginBottom=0;gradientColor=none;swimlaneFillColor=#ffffff;rounded=1;" parent="UFDwBElanjYIAtB_f4RN-89" vertex="1">
          <mxGeometry y="420" width="120" height="78" as="geometry"/>
        </mxCell>
        <mxCell id="UFDwBElanjYIAtB_f4RN-111" value="name" style="text;strokeColor=none;fillColor=none;align=left;verticalAlign=top;spacingLeft=4;spacingRight=4;overflow=hidden;rotatable=0;points=[[0,0.5],[1,0.5]];portConstraint=eastwest;" parent="UFDwBElanjYIAtB_f4RN-110" vertex="1">
          <mxGeometry y="26" width="120" height="26" as="geometry"/>
        </mxCell>
        <mxCell id="UFDwBElanjYIAtB_f4RN-112" value="address" style="text;strokeColor=none;fillColor=none;align=left;verticalAlign=top;spacingLeft=4;spacingRight=4;overflow=hidden;rotatable=0;points=[[0,0.5],[1,0.5]];portConstraint=eastwest;" parent="UFDwBElanjYIAtB_f4RN-110" vertex="1">
          <mxGeometry y="52" width="120" height="26" as="geometry"/>
        </mxCell>
        <mxCell id="UFDwBElanjYIAtB_f4RN-103" value="Category" style="swimlane;fontStyle=0;childLayout=stackLayout;horizontal=1;startSize=26;horizontalStack=0;resizeParent=1;resizeParentMax=0;resizeLast=0;collapsible=1;marginBottom=0;gradientColor=none;swimlaneFillColor=#ffffff;rounded=1;" parent="1" vertex="1">
          <mxGeometry x="1480.5" y="413.5" width="120" height="52" as="geometry"/>
        </mxCell>
        <mxCell id="UFDwBElanjYIAtB_f4RN-104" value="name" style="text;strokeColor=none;fillColor=none;align=left;verticalAlign=top;spacingLeft=4;spacingRight=4;overflow=hidden;rotatable=0;points=[[0,0.5],[1,0.5]];portConstraint=eastwest;" parent="UFDwBElanjYIAtB_f4RN-103" vertex="1">
          <mxGeometry y="26" width="120" height="26" as="geometry"/>
        </mxCell>
        <mxCell id="UFDwBElanjYIAtB_f4RN-108" value="" style="edgeStyle=orthogonalEdgeStyle;rounded=0;orthogonalLoop=1;jettySize=auto;html=1;startArrow=ERmany;startFill=0;strokeWidth=1;endSize=6;startSize=12;endArrow=none;endFill=0;" parent="1" source="UFDwBElanjYIAtB_f4RN-97" target="UFDwBElanjYIAtB_f4RN-103" edge="1">
          <mxGeometry relative="1" as="geometry"/>
        </mxCell>
        <mxCell id="UFDwBElanjYIAtB_f4RN-135" value="" style="edgeStyle=orthogonalEdgeStyle;rounded=0;orthogonalLoop=1;jettySize=auto;html=1;startArrow=ERmany;startFill=0;startSize=12;endArrow=none;endFill=0;" parent="1" source="UFDwBElanjYIAtB_f4RN-124" target="UFDwBElanjYIAtB_f4RN-131" edge="1">
          <mxGeometry relative="1" as="geometry"/>
        </mxCell>
        <mxCell id="UFDwBElanjYIAtB_f4RN-158" value="" style="edgeStyle=orthogonalEdgeStyle;rounded=0;orthogonalLoop=1;jettySize=auto;html=1;startArrow=ERmany;startFill=0;endArrow=none;endFill=0;startSize=12;endSize=6;" parent="1" source="UFDwBElanjYIAtB_f4RN-124" target="UFDwBElanjYIAtB_f4RN-154" edge="1">
          <mxGeometry relative="1" as="geometry"/>
        </mxCell>
        <mxCell id="UFDwBElanjYIAtB_f4RN-124" value="Order" style="swimlane;fontStyle=0;childLayout=stackLayout;horizontal=1;startSize=26;horizontalStack=0;resizeParent=1;resizeParentMax=0;resizeLast=0;collapsible=1;marginBottom=0;gradientColor=none;swimlaneFillColor=#ffffff;rounded=1;" parent="1" vertex="1">
          <mxGeometry x="1080.5" y="374.5" width="120" height="130" as="geometry"/>
        </mxCell>
        <mxCell id="UFDwBElanjYIAtB_f4RN-125" value="number" style="text;strokeColor=none;fillColor=none;align=left;verticalAlign=top;spacingLeft=4;spacingRight=4;overflow=hidden;rotatable=0;points=[[0,0.5],[1,0.5]];portConstraint=eastwest;" parent="UFDwBElanjYIAtB_f4RN-124" vertex="1">
          <mxGeometry y="26" width="120" height="26" as="geometry"/>
        </mxCell>
        <mxCell id="UFDwBElanjYIAtB_f4RN-126" value="delivery address" style="text;strokeColor=none;fillColor=none;align=left;verticalAlign=top;spacingLeft=4;spacingRight=4;overflow=hidden;rotatable=0;points=[[0,0.5],[1,0.5]];portConstraint=eastwest;" parent="UFDwBElanjYIAtB_f4RN-124" vertex="1">
          <mxGeometry y="52" width="120" height="26" as="geometry"/>
        </mxCell>
        <mxCell id="UFDwBElanjYIAtB_f4RN-127" value="recipient name" style="text;strokeColor=none;fillColor=none;align=left;verticalAlign=top;spacingLeft=4;spacingRight=4;overflow=hidden;rotatable=0;points=[[0,0.5],[1,0.5]];portConstraint=eastwest;" parent="UFDwBElanjYIAtB_f4RN-124" vertex="1">
          <mxGeometry y="78" width="120" height="26" as="geometry"/>
        </mxCell>
        <mxCell id="UFDwBElanjYIAtB_f4RN-181" value="status" style="text;strokeColor=none;fillColor=none;align=left;verticalAlign=top;spacingLeft=4;spacingRight=4;overflow=hidden;rotatable=0;points=[[0,0.5],[1,0.5]];portConstraint=eastwest;" parent="UFDwBElanjYIAtB_f4RN-124" vertex="1">
          <mxGeometry y="104" width="120" height="26" as="geometry"/>
        </mxCell>
        <mxCell id="UFDwBElanjYIAtB_f4RN-164" value="" style="edgeStyle=orthogonalEdgeStyle;rounded=0;orthogonalLoop=1;jettySize=auto;html=1;endArrow=block;endFill=0;startSize=6;endSize=12;" parent="1" source="UFDwBElanjYIAtB_f4RN-154" target="UFDwBElanjYIAtB_f4RN-160" edge="1">
          <mxGeometry relative="1" as="geometry"/>
        </mxCell>
        <mxCell id="nDEKwufuKo4ewHLFUpzu-1" style="edgeStyle=orthogonalEdgeStyle;rounded=0;orthogonalLoop=1;jettySize=auto;html=1;exitX=0.5;exitY=0;exitDx=0;exitDy=0;endFill=0;endArrow=ERmany;endSize=12;startFill=0;startArrow=ERmany;startSize=12;" edge="1" parent="1" source="UFDwBElanjYIAtB_f4RN-154" target="UFDwBElanjYIAtB_f4RN-84">
          <mxGeometry relative="1" as="geometry">
            <Array as="points">
              <mxPoint x="941" y="217"/>
            </Array>
          </mxGeometry>
        </mxCell>
        <mxCell id="UFDwBElanjYIAtB_f4RN-154" value="Employe" style="swimlane;fontStyle=0;childLayout=stackLayout;horizontal=1;startSize=26;horizontalStack=0;resizeParent=1;resizeParentMax=0;resizeLast=0;collapsible=1;marginBottom=0;gradientColor=none;swimlaneFillColor=#ffffff;rounded=1;" parent="1" vertex="1">
          <mxGeometry x="880.5" y="413.5" width="120" height="52" as="geometry"/>
        </mxCell>
        <mxCell id="UFDwBElanjYIAtB_f4RN-160" value="&lt;interface&gt; User" style="swimlane;fontStyle=2;childLayout=stackLayout;horizontal=1;startSize=26;horizontalStack=0;resizeParent=1;resizeParentMax=0;resizeLast=0;collapsible=1;marginBottom=0;swimlaneFillColor=#ffffff;rounded=1;fillColor=#f5f5f5;strokeColor=#666666;fontColor=#333333;" parent="1" vertex="1">
          <mxGeometry x="880.5" y="545.5" width="120" height="130" as="geometry"/>
        </mxCell>
        <mxCell id="UFDwBElanjYIAtB_f4RN-161" value="name" style="text;strokeColor=none;fillColor=none;align=left;verticalAlign=top;spacingLeft=4;spacingRight=4;overflow=hidden;rotatable=0;points=[[0,0.5],[1,0.5]];portConstraint=eastwest;" parent="UFDwBElanjYIAtB_f4RN-160" vertex="1">
          <mxGeometry y="26" width="120" height="26" as="geometry"/>
        </mxCell>
        <mxCell id="UFDwBElanjYIAtB_f4RN-162" value="password hash" style="text;strokeColor=none;fillColor=none;align=left;verticalAlign=top;spacingLeft=4;spacingRight=4;overflow=hidden;rotatable=0;points=[[0,0.5],[1,0.5]];portConstraint=eastwest;" parent="UFDwBElanjYIAtB_f4RN-160" vertex="1">
          <mxGeometry y="52" width="120" height="26" as="geometry"/>
        </mxCell>
        <mxCell id="UFDwBElanjYIAtB_f4RN-174" value="corporate id" style="text;strokeColor=none;fillColor=none;align=left;verticalAlign=top;spacingLeft=4;spacingRight=4;overflow=hidden;rotatable=0;points=[[0,0.5],[1,0.5]];portConstraint=eastwest;" parent="UFDwBElanjYIAtB_f4RN-160" vertex="1">
          <mxGeometry y="78" width="120" height="26" as="geometry"/>
        </mxCell>
        <mxCell id="UFDwBElanjYIAtB_f4RN-183" value="photo / base64" style="text;strokeColor=none;fillColor=none;align=left;verticalAlign=top;spacingLeft=4;spacingRight=4;overflow=hidden;rotatable=0;points=[[0,0.5],[1,0.5]];portConstraint=eastwest;" parent="UFDwBElanjYIAtB_f4RN-160" vertex="1">
          <mxGeometry y="104" width="120" height="26" as="geometry"/>
        </mxCell>
        <mxCell id="UFDwBElanjYIAtB_f4RN-140" value="" style="edgeStyle=orthogonalEdgeStyle;rounded=0;orthogonalLoop=1;jettySize=auto;html=1;startArrow=ERmany;startFill=0;startSize=12;endArrow=none;endFill=0;" parent="1" source="UFDwBElanjYIAtB_f4RN-131" target="UFDwBElanjYIAtB_f4RN-136" edge="1">
          <mxGeometry relative="1" as="geometry"/>
        </mxCell>
        <mxCell id="UFDwBElanjYIAtB_f4RN-131" value="Courier" style="swimlane;fontStyle=0;childLayout=stackLayout;horizontal=1;startSize=26;horizontalStack=0;resizeParent=1;resizeParentMax=0;resizeLast=0;collapsible=1;marginBottom=0;gradientColor=none;swimlaneFillColor=#ffffff;rounded=1;" parent="1" vertex="1">
          <mxGeometry x="1080.5" y="571.5" width="120" height="52" as="geometry"/>
        </mxCell>
        <mxCell id="UFDwBElanjYIAtB_f4RN-146" value="" style="edgeStyle=orthogonalEdgeStyle;rounded=0;orthogonalLoop=1;jettySize=auto;html=1;endArrow=block;endFill=0;endSize=12;" parent="1" source="UFDwBElanjYIAtB_f4RN-136" target="UFDwBElanjYIAtB_f4RN-142" edge="1">
          <mxGeometry relative="1" as="geometry"/>
        </mxCell>
        <mxCell id="UFDwBElanjYIAtB_f4RN-136" value="Delivery" style="swimlane;fontStyle=0;childLayout=stackLayout;horizontal=1;startSize=26;horizontalStack=0;resizeParent=1;resizeParentMax=0;resizeLast=0;collapsible=1;marginBottom=0;gradientColor=none;swimlaneFillColor=#ffffff;rounded=1;" parent="1" vertex="1">
          <mxGeometry x="1080.5" y="769.5" width="120" height="52" as="geometry"/>
        </mxCell>
        <mxCell id="UFDwBElanjYIAtB_f4RN-137" value="number" style="text;strokeColor=none;fillColor=none;align=left;verticalAlign=top;spacingLeft=4;spacingRight=4;overflow=hidden;rotatable=0;points=[[0,0.5],[1,0.5]];portConstraint=eastwest;" parent="UFDwBElanjYIAtB_f4RN-136" vertex="1">
          <mxGeometry y="26" width="120" height="26" as="geometry"/>
        </mxCell>
        <mxCell id="UFDwBElanjYIAtB_f4RN-142" value="&lt;interface&gt; Company" style="swimlane;fontStyle=2;childLayout=stackLayout;horizontal=1;startSize=26;horizontalStack=0;resizeParent=1;resizeParentMax=0;resizeLast=0;collapsible=1;marginBottom=0;swimlaneFillColor=#ffffff;rounded=1;fillColor=#f5f5f5;strokeColor=#666666;fontColor=#333333;" parent="1" vertex="1">
          <mxGeometry x="1265.5" y="705" width="150" height="182" as="geometry"/>
        </mxCell>
        <mxCell id="UFDwBElanjYIAtB_f4RN-143" value="name" style="text;strokeColor=none;fillColor=none;align=left;verticalAlign=top;spacingLeft=4;spacingRight=4;overflow=hidden;rotatable=0;points=[[0,0.5],[1,0.5]];portConstraint=eastwest;" parent="UFDwBElanjYIAtB_f4RN-142" vertex="1">
          <mxGeometry y="26" width="150" height="26" as="geometry"/>
        </mxCell>
        <mxCell id="UFDwBElanjYIAtB_f4RN-145" value="country" style="text;strokeColor=none;fillColor=none;align=left;verticalAlign=top;spacingLeft=4;spacingRight=4;overflow=hidden;rotatable=0;points=[[0,0.5],[1,0.5]];portConstraint=eastwest;" parent="UFDwBElanjYIAtB_f4RN-142" vertex="1">
          <mxGeometry y="52" width="150" height="26" as="geometry"/>
        </mxCell>
        <mxCell id="UFDwBElanjYIAtB_f4RN-147" value="city" style="text;strokeColor=none;fillColor=none;align=left;verticalAlign=top;spacingLeft=4;spacingRight=4;overflow=hidden;rotatable=0;points=[[0,0.5],[1,0.5]];portConstraint=eastwest;" parent="UFDwBElanjYIAtB_f4RN-142" vertex="1">
          <mxGeometry y="78" width="150" height="26" as="geometry"/>
        </mxCell>
        <mxCell id="UFDwBElanjYIAtB_f4RN-148" value="street" style="text;strokeColor=none;fillColor=none;align=left;verticalAlign=top;spacingLeft=4;spacingRight=4;overflow=hidden;rotatable=0;points=[[0,0.5],[1,0.5]];portConstraint=eastwest;" parent="UFDwBElanjYIAtB_f4RN-142" vertex="1">
          <mxGeometry y="104" width="150" height="26" as="geometry"/>
        </mxCell>
        <mxCell id="UFDwBElanjYIAtB_f4RN-149" value="zip code" style="text;strokeColor=none;fillColor=none;align=left;verticalAlign=top;spacingLeft=4;spacingRight=4;overflow=hidden;rotatable=0;points=[[0,0.5],[1,0.5]];portConstraint=eastwest;" parent="UFDwBElanjYIAtB_f4RN-142" vertex="1">
          <mxGeometry y="130" width="150" height="26" as="geometry"/>
        </mxCell>
        <mxCell id="UFDwBElanjYIAtB_f4RN-173" value="logo url" style="text;strokeColor=none;fillColor=none;align=left;verticalAlign=top;spacingLeft=4;spacingRight=4;overflow=hidden;rotatable=0;points=[[0,0.5],[1,0.5]];portConstraint=eastwest;" parent="UFDwBElanjYIAtB_f4RN-142" vertex="1">
          <mxGeometry y="156" width="150" height="26" as="geometry"/>
        </mxCell>
        <mxCell id="UFDwBElanjYIAtB_f4RN-130" value="" style="edgeStyle=orthogonalEdgeStyle;rounded=0;orthogonalLoop=1;jettySize=auto;html=1;startArrow=ERmany;startFill=0;endArrow=ERmany;endFill=0;endSize=12;startSize=12;" parent="1" source="UFDwBElanjYIAtB_f4RN-97" target="UFDwBElanjYIAtB_f4RN-124" edge="1">
          <mxGeometry relative="1" as="geometry"/>
        </mxCell>
        <mxCell id="UFDwBElanjYIAtB_f4RN-152" style="edgeStyle=orthogonalEdgeStyle;rounded=0;orthogonalLoop=1;jettySize=auto;html=1;entryX=0.5;entryY=0;entryDx=0;entryDy=0;endArrow=block;endFill=0;endSize=12;" parent="1" source="UFDwBElanjYIAtB_f4RN-110" target="UFDwBElanjYIAtB_f4RN-142" edge="1">
          <mxGeometry relative="1" as="geometry"/>
        </mxCell>
        <mxCell id="UFDwBElanjYIAtB_f4RN-165" style="edgeStyle=orthogonalEdgeStyle;rounded=0;orthogonalLoop=1;jettySize=auto;html=1;endArrow=block;endFill=0;strokeWidth=1;endSize=12;" parent="1" target="UFDwBElanjYIAtB_f4RN-160" edge="1">
          <mxGeometry relative="1" as="geometry">
            <mxPoint x="1080.5" y="610" as="sourcePoint"/>
          </mxGeometry>
        </mxCell>
      </root>
    </mxGraphModel>
  </diagram>
  <diagram id="oVBxenOOyH4UIM6E6FiP" name="first scheme">
    <mxGraphModel dx="1408" dy="940" grid="1" gridSize="10" guides="1" tooltips="1" connect="1" arrows="1" fold="1" page="1" pageScale="1" pageWidth="827" pageHeight="1169" math="0" shadow="0">
      <root>
        <mxCell id="W5ASYDgtqmHRvFnOyitv-0"/>
        <mxCell id="W5ASYDgtqmHRvFnOyitv-1" parent="W5ASYDgtqmHRvFnOyitv-0"/>
        <mxCell id="W5ASYDgtqmHRvFnOyitv-2" style="edgeStyle=orthogonalEdgeStyle;rounded=0;jumpSize=0;orthogonalLoop=1;jettySize=auto;html=1;startArrow=none;startFill=0;startSize=16;endArrow=none;endFill=0;endSize=16;targetPerimeterSpacing=0;exitX=0.25;exitY=0;exitDx=0;exitDy=0;" parent="W5ASYDgtqmHRvFnOyitv-1" source="W5ASYDgtqmHRvFnOyitv-18" target="W5ASYDgtqmHRvFnOyitv-13" edge="1">
          <mxGeometry relative="1" as="geometry">
            <Array as="points">
              <mxPoint x="54.5" y="90"/>
              <mxPoint x="750.5" y="90"/>
            </Array>
          </mxGeometry>
        </mxCell>
        <mxCell id="W5ASYDgtqmHRvFnOyitv-3" value="&lt;interface&gt; User" style="swimlane;fontStyle=0;childLayout=stackLayout;horizontal=1;startSize=26;fillColor=none;horizontalStack=0;resizeParent=1;resizeParentMax=0;resizeLast=0;collapsible=1;marginBottom=0;" parent="W5ASYDgtqmHRvFnOyitv-1" vertex="1">
          <mxGeometry x="129.5" y="130" width="140" height="104" as="geometry"/>
        </mxCell>
        <mxCell id="W5ASYDgtqmHRvFnOyitv-4" value="first name" style="text;strokeColor=none;fillColor=none;align=left;verticalAlign=top;spacingLeft=4;spacingRight=4;overflow=hidden;rotatable=0;points=[[0,0.5],[1,0.5]];portConstraint=eastwest;" parent="W5ASYDgtqmHRvFnOyitv-3" vertex="1">
          <mxGeometry y="26" width="140" height="26" as="geometry"/>
        </mxCell>
        <mxCell id="W5ASYDgtqmHRvFnOyitv-5" value="last name" style="text;strokeColor=none;fillColor=none;align=left;verticalAlign=top;spacingLeft=4;spacingRight=4;overflow=hidden;rotatable=0;points=[[0,0.5],[1,0.5]];portConstraint=eastwest;" parent="W5ASYDgtqmHRvFnOyitv-3" vertex="1">
          <mxGeometry y="52" width="140" height="26" as="geometry"/>
        </mxCell>
        <mxCell id="W5ASYDgtqmHRvFnOyitv-6" value="email" style="text;strokeColor=none;fillColor=none;align=left;verticalAlign=top;spacingLeft=4;spacingRight=4;overflow=hidden;rotatable=0;points=[[0,0.5],[1,0.5]];portConstraint=eastwest;" parent="W5ASYDgtqmHRvFnOyitv-3" vertex="1">
          <mxGeometry y="78" width="140" height="26" as="geometry"/>
        </mxCell>
        <mxCell id="W5ASYDgtqmHRvFnOyitv-7" value="Stock" style="swimlane;fontStyle=0;childLayout=stackLayout;horizontal=1;startSize=26;fillColor=none;horizontalStack=0;resizeParent=1;resizeParentMax=0;resizeLast=0;collapsible=1;marginBottom=0;" parent="W5ASYDgtqmHRvFnOyitv-1" vertex="1">
          <mxGeometry x="449.5" y="130" width="140" height="52" as="geometry"/>
        </mxCell>
        <mxCell id="W5ASYDgtqmHRvFnOyitv-8" style="edgeStyle=orthogonalEdgeStyle;rounded=0;jumpSize=0;orthogonalLoop=1;jettySize=auto;html=1;exitX=0.5;exitY=0;exitDx=0;exitDy=0;startArrow=ERmany;startFill=0;startSize=16;endArrow=ERmany;endFill=0;endSize=16;targetPerimeterSpacing=0;" parent="W5ASYDgtqmHRvFnOyitv-1" source="W5ASYDgtqmHRvFnOyitv-10" target="W5ASYDgtqmHRvFnOyitv-7" edge="1">
          <mxGeometry relative="1" as="geometry"/>
        </mxCell>
        <mxCell id="W5ASYDgtqmHRvFnOyitv-9" style="edgeStyle=orthogonalEdgeStyle;rounded=0;jumpSize=0;orthogonalLoop=1;jettySize=auto;html=1;startArrow=none;startFill=0;startSize=16;endArrow=none;endFill=0;endSize=16;targetPerimeterSpacing=0;exitX=0.75;exitY=0;exitDx=0;exitDy=0;" parent="W5ASYDgtqmHRvFnOyitv-1" source="W5ASYDgtqmHRvFnOyitv-10" target="W5ASYDgtqmHRvFnOyitv-13" edge="1">
          <mxGeometry relative="1" as="geometry">
            <Array as="points">
              <mxPoint x="554.5" y="261"/>
              <mxPoint x="750.5" y="261"/>
            </Array>
          </mxGeometry>
        </mxCell>
        <mxCell id="W5ASYDgtqmHRvFnOyitv-10" value="Item" style="swimlane;fontStyle=0;childLayout=stackLayout;horizontal=1;startSize=26;fillColor=none;horizontalStack=0;resizeParent=1;resizeParentMax=0;resizeLast=0;collapsible=1;marginBottom=0;" parent="W5ASYDgtqmHRvFnOyitv-1" vertex="1">
          <mxGeometry x="449.5" y="335" width="140" height="78" as="geometry"/>
        </mxCell>
        <mxCell id="W5ASYDgtqmHRvFnOyitv-11" value="info" style="text;strokeColor=none;fillColor=none;align=left;verticalAlign=top;spacingLeft=4;spacingRight=4;overflow=hidden;rotatable=0;points=[[0,0.5],[1,0.5]];portConstraint=eastwest;" parent="W5ASYDgtqmHRvFnOyitv-10" vertex="1">
          <mxGeometry y="26" width="140" height="26" as="geometry"/>
        </mxCell>
        <mxCell id="W5ASYDgtqmHRvFnOyitv-12" value="quantity" style="text;strokeColor=none;fillColor=none;align=left;verticalAlign=top;spacingLeft=4;spacingRight=4;overflow=hidden;rotatable=0;points=[[0,0.5],[1,0.5]];portConstraint=eastwest;" parent="W5ASYDgtqmHRvFnOyitv-10" vertex="1">
          <mxGeometry y="52" width="140" height="26" as="geometry"/>
        </mxCell>
        <mxCell id="W5ASYDgtqmHRvFnOyitv-13" value="History Record" style="swimlane;fontStyle=0;childLayout=stackLayout;horizontal=1;startSize=26;fillColor=none;horizontalStack=0;resizeParent=1;resizeParentMax=0;resizeLast=0;collapsible=1;marginBottom=0;" parent="W5ASYDgtqmHRvFnOyitv-1" vertex="1">
          <mxGeometry x="679.5" y="130" width="140" height="52" as="geometry"/>
        </mxCell>
        <mxCell id="W5ASYDgtqmHRvFnOyitv-14" style="edgeStyle=orthogonalEdgeStyle;rounded=0;jumpSize=0;orthogonalLoop=1;jettySize=auto;html=1;exitX=0.5;exitY=0;exitDx=0;exitDy=0;startArrow=none;startFill=0;startSize=12;endArrow=block;endFill=0;endSize=12;targetPerimeterSpacing=0;" parent="W5ASYDgtqmHRvFnOyitv-1" source="W5ASYDgtqmHRvFnOyitv-16" target="W5ASYDgtqmHRvFnOyitv-3" edge="1">
          <mxGeometry relative="1" as="geometry"/>
        </mxCell>
        <mxCell id="W5ASYDgtqmHRvFnOyitv-15" style="edgeStyle=orthogonalEdgeStyle;rounded=0;jumpSize=0;orthogonalLoop=1;jettySize=auto;html=1;startArrow=ERmany;startFill=0;startSize=16;endArrow=none;endFill=0;endSize=16;targetPerimeterSpacing=0;" parent="W5ASYDgtqmHRvFnOyitv-1" source="W5ASYDgtqmHRvFnOyitv-16" target="W5ASYDgtqmHRvFnOyitv-30" edge="1">
          <mxGeometry relative="1" as="geometry">
            <Array as="points">
              <mxPoint x="299.5" y="812"/>
            </Array>
          </mxGeometry>
        </mxCell>
        <mxCell id="W5ASYDgtqmHRvFnOyitv-16" value="Courier" style="swimlane;fontStyle=0;childLayout=stackLayout;horizontal=1;startSize=26;fillColor=none;horizontalStack=0;resizeParent=1;resizeParentMax=0;resizeLast=0;collapsible=1;marginBottom=0;" parent="W5ASYDgtqmHRvFnOyitv-1" vertex="1">
          <mxGeometry x="229.5" y="335" width="140" height="52" as="geometry"/>
        </mxCell>
        <mxCell id="W5ASYDgtqmHRvFnOyitv-17" style="edgeStyle=orthogonalEdgeStyle;rounded=0;jumpSize=0;orthogonalLoop=1;jettySize=auto;html=1;exitX=0.5;exitY=0;exitDx=0;exitDy=0;startArrow=none;startFill=0;startSize=12;endArrow=block;endFill=0;endSize=12;targetPerimeterSpacing=0;" parent="W5ASYDgtqmHRvFnOyitv-1" source="W5ASYDgtqmHRvFnOyitv-18" target="W5ASYDgtqmHRvFnOyitv-3" edge="1">
          <mxGeometry relative="1" as="geometry"/>
        </mxCell>
        <mxCell id="W5ASYDgtqmHRvFnOyitv-18" value="Employe" style="swimlane;fontStyle=0;childLayout=stackLayout;horizontal=1;startSize=26;fillColor=none;horizontalStack=0;resizeParent=1;resizeParentMax=0;resizeLast=0;collapsible=1;marginBottom=0;" parent="W5ASYDgtqmHRvFnOyitv-1" vertex="1">
          <mxGeometry x="19.5" y="335" width="140" height="52" as="geometry"/>
        </mxCell>
        <mxCell id="W5ASYDgtqmHRvFnOyitv-19" value="corporate id" style="text;strokeColor=none;fillColor=none;align=left;verticalAlign=top;spacingLeft=4;spacingRight=4;overflow=hidden;rotatable=0;points=[[0,0.5],[1,0.5]];portConstraint=eastwest;" parent="W5ASYDgtqmHRvFnOyitv-18" vertex="1">
          <mxGeometry y="26" width="140" height="26" as="geometry"/>
        </mxCell>
        <mxCell id="W5ASYDgtqmHRvFnOyitv-20" value="Category" style="swimlane;fontStyle=0;childLayout=stackLayout;horizontal=1;startSize=26;fillColor=none;horizontalStack=0;resizeParent=1;resizeParentMax=0;resizeLast=0;collapsible=1;marginBottom=0;" parent="W5ASYDgtqmHRvFnOyitv-1" vertex="1">
          <mxGeometry x="649.5" y="288" width="140" height="52" as="geometry"/>
        </mxCell>
        <mxCell id="W5ASYDgtqmHRvFnOyitv-21" value="name" style="text;strokeColor=none;fillColor=none;align=left;verticalAlign=top;spacingLeft=4;spacingRight=4;overflow=hidden;rotatable=0;points=[[0,0.5],[1,0.5]];portConstraint=eastwest;" parent="W5ASYDgtqmHRvFnOyitv-20" vertex="1">
          <mxGeometry y="26" width="140" height="26" as="geometry"/>
        </mxCell>
        <mxCell id="W5ASYDgtqmHRvFnOyitv-22" style="edgeStyle=orthogonalEdgeStyle;rounded=0;jumpSize=0;orthogonalLoop=1;jettySize=auto;html=1;startArrow=none;startFill=0;startSize=16;endArrow=ERmany;endFill=0;endSize=16;targetPerimeterSpacing=0;" parent="W5ASYDgtqmHRvFnOyitv-1" source="W5ASYDgtqmHRvFnOyitv-20" target="W5ASYDgtqmHRvFnOyitv-10" edge="1">
          <mxGeometry relative="1" as="geometry"/>
        </mxCell>
        <mxCell id="W5ASYDgtqmHRvFnOyitv-23" value="&lt;interface&gt; Company" style="swimlane;fontStyle=0;childLayout=stackLayout;horizontal=1;startSize=26;fillColor=none;horizontalStack=0;resizeParent=1;resizeParentMax=0;resizeLast=0;collapsible=1;marginBottom=0;" parent="W5ASYDgtqmHRvFnOyitv-1" vertex="1">
          <mxGeometry x="454.5" y="530.5" width="140" height="104" as="geometry"/>
        </mxCell>
        <mxCell id="W5ASYDgtqmHRvFnOyitv-24" value="name" style="text;strokeColor=none;fillColor=none;align=left;verticalAlign=top;spacingLeft=4;spacingRight=4;overflow=hidden;rotatable=0;points=[[0,0.5],[1,0.5]];portConstraint=eastwest;" parent="W5ASYDgtqmHRvFnOyitv-23" vertex="1">
          <mxGeometry y="26" width="140" height="26" as="geometry"/>
        </mxCell>
        <mxCell id="W5ASYDgtqmHRvFnOyitv-25" value="address" style="text;strokeColor=none;fillColor=none;align=left;verticalAlign=top;spacingLeft=4;spacingRight=4;overflow=hidden;rotatable=0;points=[[0,0.5],[1,0.5]];portConstraint=eastwest;" parent="W5ASYDgtqmHRvFnOyitv-23" vertex="1">
          <mxGeometry y="52" width="140" height="26" as="geometry"/>
        </mxCell>
        <mxCell id="W5ASYDgtqmHRvFnOyitv-26" value="registration number" style="text;strokeColor=none;fillColor=none;align=left;verticalAlign=top;spacingLeft=4;spacingRight=4;overflow=hidden;rotatable=0;points=[[0,0.5],[1,0.5]];portConstraint=eastwest;" parent="W5ASYDgtqmHRvFnOyitv-23" vertex="1">
          <mxGeometry y="78" width="140" height="26" as="geometry"/>
        </mxCell>
        <mxCell id="W5ASYDgtqmHRvFnOyitv-27" style="edgeStyle=orthogonalEdgeStyle;rounded=0;jumpSize=0;orthogonalLoop=1;jettySize=auto;html=1;exitX=0.5;exitY=0;exitDx=0;exitDy=0;startArrow=none;startFill=0;startSize=12;endArrow=block;endFill=0;endSize=12;targetPerimeterSpacing=0;" parent="W5ASYDgtqmHRvFnOyitv-1" source="W5ASYDgtqmHRvFnOyitv-28" target="W5ASYDgtqmHRvFnOyitv-23" edge="1">
          <mxGeometry relative="1" as="geometry"/>
        </mxCell>
        <mxCell id="W5ASYDgtqmHRvFnOyitv-28" value="Manufacturer" style="swimlane;fontStyle=0;childLayout=stackLayout;horizontal=1;startSize=26;fillColor=none;horizontalStack=0;resizeParent=1;resizeParentMax=0;resizeLast=0;collapsible=1;marginBottom=0;" parent="W5ASYDgtqmHRvFnOyitv-1" vertex="1">
          <mxGeometry x="554.5" y="735.5" width="140" height="52" as="geometry"/>
        </mxCell>
        <mxCell id="W5ASYDgtqmHRvFnOyitv-29" style="edgeStyle=orthogonalEdgeStyle;rounded=0;jumpSize=0;orthogonalLoop=1;jettySize=auto;html=1;exitX=0.5;exitY=0;exitDx=0;exitDy=0;startArrow=none;startFill=0;startSize=12;endArrow=block;endFill=0;endSize=12;targetPerimeterSpacing=0;" parent="W5ASYDgtqmHRvFnOyitv-1" source="W5ASYDgtqmHRvFnOyitv-30" target="W5ASYDgtqmHRvFnOyitv-23" edge="1">
          <mxGeometry relative="1" as="geometry"/>
        </mxCell>
        <mxCell id="W5ASYDgtqmHRvFnOyitv-30" value="Delivery" style="swimlane;fontStyle=0;childLayout=stackLayout;horizontal=1;startSize=26;fillColor=none;horizontalStack=0;resizeParent=1;resizeParentMax=0;resizeLast=0;collapsible=1;marginBottom=0;" parent="W5ASYDgtqmHRvFnOyitv-1" vertex="1">
          <mxGeometry x="344.5" y="735.5" width="140" height="52" as="geometry"/>
        </mxCell>
        <mxCell id="W5ASYDgtqmHRvFnOyitv-31" value="corporate id" style="text;strokeColor=none;fillColor=none;align=left;verticalAlign=top;spacingLeft=4;spacingRight=4;overflow=hidden;rotatable=0;points=[[0,0.5],[1,0.5]];portConstraint=eastwest;" parent="W5ASYDgtqmHRvFnOyitv-30" vertex="1">
          <mxGeometry y="26" width="140" height="26" as="geometry"/>
        </mxCell>
        <mxCell id="W5ASYDgtqmHRvFnOyitv-32" style="edgeStyle=orthogonalEdgeStyle;rounded=0;jumpSize=0;orthogonalLoop=1;jettySize=auto;html=1;startArrow=none;startFill=0;startSize=16;endArrow=ERmany;endFill=0;endSize=16;targetPerimeterSpacing=0;" parent="W5ASYDgtqmHRvFnOyitv-1" source="W5ASYDgtqmHRvFnOyitv-28" target="W5ASYDgtqmHRvFnOyitv-10" edge="1">
          <mxGeometry relative="1" as="geometry">
            <Array as="points">
              <mxPoint x="659.5" y="450"/>
              <mxPoint x="549.5" y="450"/>
            </Array>
          </mxGeometry>
        </mxCell>
        <mxCell id="W5ASYDgtqmHRvFnOyitv-33" style="edgeStyle=orthogonalEdgeStyle;rounded=0;jumpSize=0;orthogonalLoop=1;jettySize=auto;html=1;entryX=0;entryY=0.5;entryDx=0;entryDy=0;startArrow=ERmany;startFill=0;startSize=16;endArrow=none;endFill=0;endSize=16;targetPerimeterSpacing=0;" parent="W5ASYDgtqmHRvFnOyitv-1" source="W5ASYDgtqmHRvFnOyitv-34" target="W5ASYDgtqmHRvFnOyitv-16" edge="1">
          <mxGeometry relative="1" as="geometry">
            <Array as="points">
              <mxPoint x="79.5" y="450"/>
              <mxPoint x="199.5" y="450"/>
              <mxPoint x="199.5" y="361"/>
            </Array>
          </mxGeometry>
        </mxCell>
        <mxCell id="W5ASYDgtqmHRvFnOyitv-34" value="Order" style="swimlane;fontStyle=0;childLayout=stackLayout;horizontal=1;startSize=26;fillColor=none;horizontalStack=0;resizeParent=1;resizeParentMax=0;resizeLast=0;collapsible=1;marginBottom=0;" parent="W5ASYDgtqmHRvFnOyitv-1" vertex="1">
          <mxGeometry x="9.5" y="504.5" width="140" height="130" as="geometry"/>
        </mxCell>
        <mxCell id="W5ASYDgtqmHRvFnOyitv-35" value="details" style="text;strokeColor=none;fillColor=none;align=left;verticalAlign=top;spacingLeft=4;spacingRight=4;overflow=hidden;rotatable=0;points=[[0,0.5],[1,0.5]];portConstraint=eastwest;" parent="W5ASYDgtqmHRvFnOyitv-34" vertex="1">
          <mxGeometry y="26" width="140" height="26" as="geometry"/>
        </mxCell>
        <mxCell id="W5ASYDgtqmHRvFnOyitv-36" value="recipient" style="text;strokeColor=none;fillColor=none;align=left;verticalAlign=top;spacingLeft=4;spacingRight=4;overflow=hidden;rotatable=0;points=[[0,0.5],[1,0.5]];portConstraint=eastwest;" parent="W5ASYDgtqmHRvFnOyitv-34" vertex="1">
          <mxGeometry y="52" width="140" height="26" as="geometry"/>
        </mxCell>
        <mxCell id="W5ASYDgtqmHRvFnOyitv-37" value="number" style="text;strokeColor=none;fillColor=none;align=left;verticalAlign=top;spacingLeft=4;spacingRight=4;overflow=hidden;rotatable=0;points=[[0,0.5],[1,0.5]];portConstraint=eastwest;" parent="W5ASYDgtqmHRvFnOyitv-34" vertex="1">
          <mxGeometry y="78" width="140" height="26" as="geometry"/>
        </mxCell>
        <mxCell id="W5ASYDgtqmHRvFnOyitv-38" value="date" style="text;strokeColor=none;fillColor=none;align=left;verticalAlign=top;spacingLeft=4;spacingRight=4;overflow=hidden;rotatable=0;points=[[0,0.5],[1,0.5]];portConstraint=eastwest;" parent="W5ASYDgtqmHRvFnOyitv-34" vertex="1">
          <mxGeometry y="104" width="140" height="26" as="geometry"/>
        </mxCell>
        <mxCell id="W5ASYDgtqmHRvFnOyitv-39" style="edgeStyle=orthogonalEdgeStyle;rounded=0;jumpSize=0;orthogonalLoop=1;jettySize=auto;html=1;startArrow=ERmany;startFill=0;startSize=16;endArrow=ERmany;endFill=0;endSize=16;targetPerimeterSpacing=0;" parent="W5ASYDgtqmHRvFnOyitv-1" source="W5ASYDgtqmHRvFnOyitv-11" target="W5ASYDgtqmHRvFnOyitv-36" edge="1">
          <mxGeometry relative="1" as="geometry">
            <Array as="points">
              <mxPoint x="409.5" y="374"/>
              <mxPoint x="409.5" y="570"/>
            </Array>
          </mxGeometry>
        </mxCell>
      </root>
    </mxGraphModel>
  </diagram>
</mxfile>
